<svg xmlns="http://www.w3.org/2000/svg" width="700" height="400" viewBox="0 0 700 400"><rect width="100%" height="100%" fill="#f48fb1"/><path fill="#1f2937" d="M204.12 178.62q0 2.86-.95 5.25-.96 2.4-2.68 4.12-1.73 1.73-4.16 2.69-2.43.95-5.4.95h-9.92V165.6h9.92q2.97 0 5.4.96 2.43.97 4.16 2.69 1.72 1.72 2.68 4.11.95 2.39.95 5.26m-4.97 0q0-2.15-.56-3.85-.57-1.7-1.64-2.88t-2.59-1.81-3.43-.63h-5.06v18.33h5.06q1.91 0 3.43-.63t2.59-1.81 1.64-2.88q.56-1.7.56-3.84m12.05 1.65h8.38q0-.86-.24-1.63-.24-.76-.73-1.34-.48-.57-1.23-.91-.75-.33-1.74-.33-1.92 0-3.03 1.1t-1.41 3.11m11.34 2.68h-11.43q.1 1.43.5 2.46.4 1.04 1.04 1.71.65.68 1.54 1.01t1.97.33 1.87-.25q.78-.25 1.37-.56.58-.3 1.02-.56.44-.25.86-.25.55 0 .82.42l1.28 1.62q-.74.86-1.65 1.44-.92.59-1.92.94t-2.04.5q-1.03.14-2 .14-1.93 0-3.58-.64-1.66-.64-2.88-1.89-1.23-1.25-1.93-3.1-.7-1.84-.7-4.27 0-1.89.61-3.56.61-1.66 1.76-2.89 1.14-1.24 2.78-1.96 1.65-.72 3.72-.72 1.75 0 3.22.56 1.48.56 2.54 1.63t1.67 2.63q.6 1.56.6 3.55 0 1.01-.22 1.36-.21.35-.82.35m16.65-7.79-1.01 1.6q-.18.29-.38.41-.2.11-.5.11-.33 0-.7-.18t-.85-.4q-.49-.23-1.11-.41t-1.47-.18q-1.31 0-2.06.56-.74.56-.74 1.46 0 .59.38 1 .39.4 1.03.71t1.45.55 1.65.53q.83.29 1.64.66t1.45.93q.64.57 1.03 1.36.38.79.38 1.91 0 1.33-.47 2.46-.48 1.12-1.42 1.94-.93.82-2.31 1.28t-3.18.46q-.95 0-1.86-.17t-1.74-.48q-.84-.31-1.55-.72t-1.25-.9l1.02-1.69q.2-.31.47-.47t.68-.16q.42 0 .79.23.37.24.85.51.49.27 1.14.5.66.23 1.67.23.79 0 1.36-.19.57-.18.94-.49.36-.31.53-.71.18-.41.18-.84 0-.65-.39-1.06t-1.03-.72-1.45-.55q-.82-.24-1.68-.53-.85-.29-1.67-.68-.82-.38-1.46-.98-.64-.59-1.03-1.45-.38-.87-.38-2.09 0-1.14.45-2.16.45-1.03 1.32-1.79.87-.77 2.18-1.23 1.3-.46 3.01-.46 1.91 0 3.48.63 1.56.63 2.61 1.66m3.69-2h4.46v18.47h-4.46zm5.07-5.38q0 .58-.23 1.08-.24.5-.62.88-.39.38-.91.6-.52.23-1.12.23-.57 0-1.09-.23-.51-.22-.89-.6t-.6-.88q-.23-.5-.23-1.08 0-.59.23-1.12.22-.52.6-.9.38-.37.89-.6.52-.22 1.09-.22.6 0 1.12.22.52.23.91.6.38.38.62.9.23.53.23 1.12m10.68 14.17q.82 0 1.44-.23.61-.22 1.01-.62.41-.4.62-.95.2-.56.2-1.23 0-1.37-.82-2.17t-2.45-.8q-1.64 0-2.46.8t-.82 2.17q0 .65.21 1.21.2.56.61.96.4.41 1.03.63.62.23 1.43.23m5.02 10.51q0-.54-.33-.88-.32-.35-.88-.54-.56-.18-1.3-.27-.75-.09-1.59-.14-.83-.04-1.72-.08-.9-.04-1.74-.14-.74.41-1.2.97t-.46 1.29q0 .49.25.91.24.43.77.73.53.31 1.38.48.84.17 2.07.17 1.24 0 2.14-.19t1.48-.52q.59-.33.86-.79t.27-1m-.88-18.67h5.31v1.66q0 .79-.96.97l-1.65.31q.37.95.37 2.08 0 1.37-.54 2.48-.55 1.11-1.53 1.88-.97.77-2.29 1.2-1.32.42-2.85.42-.54 0-1.05-.05-.5-.06-.99-.15-.86.52-.86 1.17 0 .56.51.82t1.36.37 1.93.13q1.08.03 2.21.12t2.21.32q1.08.22 1.93.71.85.48 1.36 1.32t.51 2.15q0 1.23-.6 2.38t-1.75 2.05q-1.14.9-2.8 1.45-1.67.55-3.79.55-2.09 0-3.64-.41-1.55-.4-2.57-1.08-1.03-.67-1.53-1.55-.51-.89-.51-1.84 0-1.3.79-2.17.78-.87 2.15-1.39-.74-.38-1.17-1.01-.44-.63-.44-1.66 0-.41.16-.85.15-.44.45-.88.29-.43.74-.82.45-.38 1.07-.69-1.41-.75-2.21-2.01t-.8-2.96q0-1.36.55-2.47t1.53-1.89 2.32-1.2q1.34-.41 2.93-.41 1.18 0 2.23.24 1.04.24 1.91.71m11.97.18.3 1.46q.56-.56 1.18-1.04.62-.47 1.32-.81.69-.33 1.48-.52t1.73-.19q1.51 0 2.68.52 1.17.51 1.95 1.44.79.92 1.19 2.21.41 1.29.41 2.84v11.75h-4.45v-11.75q0-1.7-.77-2.62-.78-.93-2.36-.93-1.15 0-2.16.52t-1.91 1.42v13.36h-4.45v-18.47h2.72q.87 0 1.14.81m19.96 6.3h8.39q0-.86-.25-1.63-.24-.76-.73-1.34-.48-.57-1.23-.91-.75-.33-1.74-.33-1.92 0-3.03 1.1t-1.41 3.11m11.34 2.68h-11.43q.11 1.43.5 2.46.4 1.04 1.05 1.71.64.68 1.54 1.01.89.33 1.97.33t1.86-.25 1.37-.56q.58-.3 1.02-.56.44-.25.86-.25.56 0 .83.42l1.27 1.62q-.73.86-1.65 1.44-.92.59-1.92.94t-2.03.5q-1.04.14-2.01.14-1.93 0-3.58-.64-1.66-.64-2.88-1.89-1.23-1.25-1.93-3.1-.7-1.84-.7-4.27 0-1.89.61-3.56.61-1.66 1.76-2.89 1.14-1.24 2.79-1.96 1.64-.72 3.71-.72 1.75 0 3.23.56 1.47.56 2.53 1.63 1.07 1.07 1.67 2.63t.6 3.55q0 1.01-.21 1.36-.22.35-.83.35m15.96 3.21v-8.28q-.75-.92-1.64-1.3t-1.92-.38q-1.01 0-1.82.38t-1.38 1.14q-.58.77-.89 1.95-.3 1.18-.3 2.78 0 1.62.26 2.74.26 1.13.75 1.84.48.71 1.18 1.03.71.31 1.57.31 1.39 0 2.36-.57.97-.58 1.83-1.64m0-21.28h4.45v26.75h-2.72q-.88 0-1.11-.81l-.38-1.78q-1.12 1.28-2.57 2.07t-3.37.79q-1.51 0-2.77-.63t-2.17-1.83q-.91-1.19-1.41-2.96-.49-1.76-.49-4.03 0-2.05.56-3.82.55-1.76 1.6-3.06 1.04-1.29 2.5-2.02t3.28-.73q1.54 0 2.64.49 1.1.48 1.96 1.31zm23.75 27.04q-2.42 0-3.7-1.36-1.29-1.36-1.29-3.75v-10.32h-1.89q-.36 0-.61-.23-.25-.24-.25-.7v-1.77l2.97-.48.93-5.04q.09-.36.34-.56.26-.2.65-.2h2.31v5.81h4.93v3.17h-4.93v10.01q0 .86.42 1.35t1.16.49q.41 0 .69-.1t.49-.21.37-.21.32-.1q.2 0 .33.1.12.1.27.3l1.33 2.16q-.97.81-2.23 1.22-1.26.42-2.61.42m15.4-19.05q2.06 0 3.74.67t2.88 1.89 1.84 2.99q.65 1.76.65 3.94 0 2.2-.65 3.96-.64 1.76-1.84 3.01-1.2 1.24-2.88 1.9-1.68.67-3.74.67-2.07 0-3.76-.67-1.69-.66-2.89-1.9-1.19-1.25-1.85-3.01t-.66-3.96q0-2.18.66-3.94.66-1.77 1.85-2.99 1.2-1.22 2.89-1.89t3.76-.67m0 15.61q2.31 0 3.42-1.55 1.1-1.55 1.1-4.53 0-2.99-1.1-4.56-1.11-1.56-3.42-1.56-2.34 0-3.46 1.57-1.13 1.58-1.13 4.55t1.13 4.52q1.12 1.56 3.46 1.56m26.81-9.79h3.61q1.34 0 2.33-.34.99-.33 1.64-.95.66-.62.98-1.51.33-.89.33-1.99 0-1.04-.33-1.89-.32-.85-.97-1.44t-1.64-.91q-.99-.31-2.34-.31h-3.61zm-4.85-13.09h8.46q2.61 0 4.52.61 1.91.62 3.15 1.71 1.24 1.1 1.85 2.63.6 1.53.6 3.35 0 1.89-.63 3.46-.63 1.58-1.89 2.71-1.26 1.14-3.16 1.77t-4.44.63h-3.61v9.16h-4.85zm25.1 14.67h8.38q0-.86-.24-1.63-.24-.76-.73-1.34-.48-.57-1.23-.91-.75-.33-1.74-.33-1.92 0-3.03 1.1t-1.41 3.11m11.34 2.68h-11.43q.1 1.43.5 2.46.4 1.04 1.04 1.71.65.68 1.54 1.01t1.97.33 1.87-.25q.78-.25 1.37-.56.58-.3 1.02-.56.44-.25.86-.25.55 0 .82.42l1.28 1.62q-.74.86-1.65 1.44-.92.59-1.92.94t-2.03.5q-1.04.14-2.01.14-1.93 0-3.58-.64-1.66-.64-2.88-1.89-1.23-1.25-1.93-3.1-.7-1.84-.7-4.27 0-1.89.61-3.56.61-1.66 1.76-2.89 1.14-1.24 2.79-1.96 1.64-.72 3.71-.72 1.75 0 3.22.56 1.48.56 2.54 1.63t1.67 2.63q.6 1.56.6 3.55 0 1.01-.22 1.36-.21.35-.82.35m8.29-8.67.27 2.09q.87-1.66 2.06-2.61 1.18-.94 2.8-.94 1.28 0 2.06.56l-.29 3.33q-.09.32-.26.46-.17.13-.46.13-.27 0-.8-.09t-1.04-.09q-.74 0-1.31.22-.58.21-1.04.62-.46.4-.81.98t-.65 1.31v11.38h-4.45v-18.47h2.61q.68 0 .95.24.27.25.36.88m15.25 17.35h-4.45v-15.12l-1.6-.25q-.52-.11-.83-.37-.32-.26-.32-.75v-1.82h2.75v-1.36q0-1.59.48-2.85t1.37-2.14 2.17-1.35 2.88-.47q1.28 0 2.37.34l-.09 2.24q-.01.25-.14.4t-.33.23q-.21.09-.48.11-.27.03-.58.03-.79 0-1.41.17t-1.05.59q-.43.43-.66 1.12-.22.69-.22 1.72v1.22h4.8v3.17h-4.66zm15.34-18.76q2.05 0 3.73.67t2.88 1.89 1.85 2.99q.64 1.76.64 3.94 0 2.2-.64 3.96-.65 1.76-1.85 3.01-1.2 1.24-2.88 1.9-1.68.67-3.73.67-2.07 0-3.77-.67-1.69-.66-2.88-1.9-1.2-1.25-1.86-3.01t-.66-3.96q0-2.18.66-3.94.66-1.77 1.86-2.99 1.19-1.22 2.88-1.89 1.7-.67 3.77-.67m0 15.61q2.3 0 3.41-1.55 1.1-1.55 1.1-4.53 0-2.99-1.1-4.56-1.11-1.56-3.41-1.56-2.34 0-3.47 1.57-1.12 1.58-1.12 4.55t1.12 4.52q1.13 1.56 3.47 1.56m16.43-14.2.27 2.09q.86-1.66 2.05-2.61 1.19-.94 2.81-.94 1.28 0 2.05.56l-.29 3.33q-.09.32-.26.46-.17.13-.46.13-.27 0-.8-.09t-1.03-.09q-.74 0-1.32.22-.57.21-1.03.62-.46.4-.81.98t-.66 1.31v11.38h-4.44v-18.47h2.61q.68 0 .95.24.27.25.36.88m13.95 17.35h-4.45v-18.47h2.72q.87 0 1.14.81l.28 1.37q.49-.54 1.02-.99t1.14-.77q.6-.33 1.29-.52t1.52-.19q1.75 0 2.87.95 1.13.94 1.69 2.51.43-.92 1.08-1.58.64-.65 1.42-1.07.77-.41 1.65-.61.87-.2 1.75-.2 1.53 0 2.72.47t2 1.37 1.23 2.2q.42 1.29.42 2.97v11.75h-4.44v-11.75q0-1.77-.78-2.66-.77-.89-2.27-.89-.68 0-1.26.23-.59.24-1.03.68t-.69 1.11q-.26.66-.26 1.53v11.75h-4.46v-11.75q0-1.86-.75-2.7-.74-.85-2.18-.85-.98 0-1.81.48-.84.47-1.56 1.3zm25.06-2.45q0-.56.2-1.06.21-.5.57-.86t.86-.58q.51-.22 1.08-.22.58 0 1.08.22.49.22.86.58t.58.86q.22.5.22 1.06 0 .58-.22 1.07-.21.5-.58.86t-.86.57q-.5.2-1.08.2-.57 0-1.08-.2-.5-.21-.86-.57t-.57-.86q-.2-.49-.2-1.07m-361.7 41.74q1.41 0 2.51-.46 1.11-.47 1.87-1.32.75-.84 1.16-2.05.4-1.21.4-2.7V208.8h4.85v15.59q0 2.32-.75 4.29t-2.14 3.41q-1.4 1.43-3.4 2.23-1.99.8-4.5.8-2.52 0-4.51-.8-2-.8-3.4-2.23-1.39-1.44-2.14-3.41t-.75-4.29V208.8h4.85v15.57q0 1.5.4 2.7.41 1.21 1.17 2.06.77.86 1.87 1.33 1.11.46 2.51.46m19.41-13.75.3 1.46q.56-.56 1.18-1.04.62-.47 1.32-.8.69-.34 1.48-.53t1.73-.19q1.51 0 2.68.52 1.17.51 1.96 1.44.78.92 1.18 2.21.41 1.29.41 2.84v11.75h-4.45v-11.75q0-1.7-.77-2.62-.78-.93-2.36-.93-1.15 0-2.16.52t-1.91 1.42v13.36h-4.44v-18.47h2.71q.87 0 1.14.81m16.59-.81h4.47v18.47h-4.47zm5.08-5.38q0 .58-.23 1.08-.24.5-.62.88-.39.38-.91.6-.53.23-1.12.23-.58 0-1.09-.23-.51-.22-.89-.6t-.6-.88q-.23-.5-.23-1.08 0-.59.23-1.12.22-.52.6-.9.38-.37.89-.6.51-.22 1.09-.22.59 0 1.12.22.52.23.91.6.38.38.62.9.23.53.23 1.12m3.98-2.9h4.44v26.75h-4.44zm17.06 7.99q2.05 0 3.74.67 1.68.67 2.88 1.89 1.19 1.22 1.84 2.99.65 1.76.65 3.94 0 2.2-.65 3.96t-1.84 3.01q-1.2 1.24-2.88 1.9-1.69.67-3.74.67-2.07 0-3.76-.67-1.69-.66-2.89-1.9-1.2-1.25-1.85-3.01-.66-1.76-.66-3.96 0-2.18.66-3.94.65-1.77 1.85-2.99t2.89-1.89 3.76-.67m0 15.61q2.31 0 3.41-1.55 1.11-1.55 1.11-4.53 0-2.99-1.11-4.56-1.1-1.56-3.41-1.56-2.34 0-3.46 1.57-1.13 1.58-1.13 4.55t1.13 4.52q1.12 1.56 3.46 1.56m16.96 3.15h-4.45v-18.47h2.72q.86 0 1.13.81l.29 1.37q.49-.54 1.02-.99t1.13-.77q.61-.33 1.3-.52t1.52-.19q1.75 0 2.87.95 1.13.94 1.68 2.51.44-.92 1.08-1.58.65-.65 1.43-1.07.77-.41 1.64-.61.88-.2 1.76-.2 1.53 0 2.72.47 1.18.47 1.99 1.37t1.24 2.2q.42 1.29.42 2.97v11.75h-4.45v-11.75q0-1.77-.77-2.66t-2.27-.89q-.68 0-1.27.23-.58.24-1.02.68t-.7 1.11q-.25.66-.25 1.53v11.75h-4.46v-11.75q0-1.86-.75-2.7-.75-.85-2.19-.85-.97 0-1.8.48-.84.47-1.56 1.3zm25.85-18.47h4.46v18.47h-4.46zm5.07-5.38q0 .58-.23 1.08-.24.5-.62.88-.39.38-.91.6-.52.23-1.12.23-.57 0-1.09-.23-.51-.22-.89-.6t-.6-.88q-.23-.5-.23-1.08 0-.59.23-1.12.22-.52.6-.9.38-.37.89-.6.52-.22 1.09-.22.6 0 1.12.22.52.23.91.6.38.38.62.9.23.53.23 1.12m12.1 5.09q2.05 0 3.73.67 1.69.67 2.88 1.89 1.2 1.22 1.85 2.99.65 1.76.65 3.94 0 2.2-.65 3.96t-1.85 3.01q-1.19 1.24-2.88 1.9-1.68.67-3.73.67-2.07 0-3.76-.67-1.7-.66-2.89-1.9-1.2-1.25-1.86-3.01-.65-1.76-.65-3.96 0-2.18.65-3.94.66-1.77 1.86-2.99 1.19-1.22 2.89-1.89 1.69-.67 3.76-.67m0 15.61q2.3 0 3.41-1.55t1.11-4.53q0-2.99-1.11-4.56-1.11-1.56-3.41-1.56-2.34 0-3.47 1.57-1.12 1.58-1.12 4.55t1.12 4.52q1.13 1.56 3.47 1.56M301.7 225h8.28l-3.17-8.66q-.23-.57-.48-1.36-.26-.8-.51-1.71-.23.91-.48 1.72-.26.8-.49 1.39zm6.61-16.2 10.22 26.03h-3.74q-.63 0-1.03-.31-.4-.32-.59-.79l-1.95-5.31h-10.78l-1.94 5.31q-.15.42-.56.76-.42.34-1.03.34h-3.78l10.24-26.03zm24.49 9.56-1 1.6q-.18.29-.38.41-.2.11-.51.11-.32 0-.69-.18t-.85-.4q-.49-.23-1.11-.41t-1.47-.18q-1.31 0-2.06.56t-.75 1.46q0 .59.39 1 .39.4 1.03.71t1.45.55 1.64.53q.84.29 1.65.66t1.45.93q.64.57 1.03 1.36.38.79.38 1.91 0 1.33-.47 2.46-.48 1.12-1.42 1.94-.93.82-2.31 1.28t-3.18.46q-.95 0-1.86-.17t-1.75-.48q-.83-.31-1.54-.72-.72-.41-1.26-.9l1.03-1.69q.2-.31.47-.47t.68-.16q.42 0 .79.23.36.24.85.51t1.14.5q.66.23 1.67.23.79 0 1.36-.18.56-.19.93-.5t.54-.71q.17-.41.17-.84 0-.65-.38-1.06-.39-.41-1.03-.72t-1.46-.55-1.67-.53q-.86-.29-1.67-.67-.82-.39-1.46-.99-.64-.59-1.03-1.45-.39-.87-.39-2.09 0-1.14.45-2.16.45-1.03 1.33-1.79.87-.77 2.18-1.23 1.3-.46 3.01-.46 1.91 0 3.47.63 1.57.63 2.61 1.66m15.83 0-1.01 1.6q-.18.29-.38.41-.2.11-.5.11-.33 0-.7-.18t-.85-.4q-.49-.23-1.11-.41t-1.47-.18q-1.31 0-2.06.56-.74.56-.74 1.46 0 .59.38 1 .39.4 1.03.71t1.45.55 1.65.53q.83.29 1.64.66t1.45.93q.64.57 1.03 1.36.38.79.38 1.91 0 1.33-.47 2.46-.48 1.12-1.42 1.94-.93.82-2.31 1.28t-3.18.46q-.95 0-1.86-.17t-1.74-.48q-.84-.31-1.55-.72t-1.25-.9l1.02-1.69q.2-.31.47-.47t.68-.16q.42 0 .79.23.37.24.85.51.49.27 1.15.5.65.23 1.66.23.79 0 1.36-.18.57-.19.94-.5.36-.31.54-.71.17-.41.17-.84 0-.65-.39-1.06t-1.03-.72-1.45-.55q-.82-.24-1.68-.53-.85-.29-1.67-.67-.82-.39-1.46-.99-.64-.59-1.03-1.45-.38-.87-.38-2.09 0-1.14.45-2.16.45-1.03 1.32-1.79.87-.77 2.18-1.23 1.3-.46 3.01-.46 1.91 0 3.48.63 1.56.63 2.61 1.66m7.05 5.11h8.39q0-.86-.24-1.63-.25-.76-.73-1.34-.49-.57-1.23-.91-.75-.33-1.74-.33-1.93 0-3.03 1.1-1.11 1.1-1.42 3.11m11.34 2.68h-11.43q.11 1.43.51 2.46.39 1.04 1.04 1.71.65.68 1.54 1.01t1.97.33 1.86-.25q.79-.25 1.37-.56.59-.3 1.03-.56.44-.25.85-.25.56 0 .83.42l1.28 1.62q-.74.86-1.66 1.45-.92.58-1.91.93-1 .35-2.04.5-1.03.14-2.01.14-1.92 0-3.58-.64-1.65-.64-2.88-1.89-1.22-1.25-1.92-3.1-.71-1.84-.71-4.27 0-1.89.62-3.55.61-1.67 1.75-2.9 1.14-1.24 2.79-1.96t3.72-.72q1.74 0 3.22.56t2.54 1.63 1.66 2.63q.61 1.56.61 3.55 0 1.01-.22 1.36t-.83.35m10.53 8.97q-2.41 0-3.7-1.36-1.28-1.36-1.28-3.75v-10.32h-1.89q-.36 0-.62-.23-.25-.24-.25-.7v-1.77l2.97-.48.94-5.04q.09-.36.34-.56t.65-.2h2.3v5.81h4.93v3.17h-4.93v10.01q0 .86.43 1.35.42.49 1.16.49.41 0 .69-.1t.49-.21q.2-.11.36-.21.17-.1.33-.1.2 0 .32.1.13.1.27.3l1.33 2.16q-.97.81-2.23 1.22-1.26.42-2.61.42m31.75-23.87-1.2 2.29q-.22.37-.46.55-.24.17-.6.17-.38 0-.82-.28t-1.06-.62q-.61-.35-1.43-.62-.82-.28-1.93-.28-1.01 0-1.77.24-.75.24-1.26.67-.52.44-.77 1.04t-.25 1.32q0 .92.51 1.53t1.36 1.05q.85.43 1.93.77t2.21.73 2.21.9 1.93 1.3q.85.78 1.36 1.91.51 1.14.51 2.76 0 1.76-.6 3.3t-1.76 2.68q-1.17 1.14-2.84 1.8t-3.83.66q-1.25 0-2.45-.24-1.21-.25-2.31-.7-1.11-.45-2.08-1.08-.98-.63-1.73-1.4l1.42-2.32q.18-.26.47-.43t.61-.17q.45 0 .97.37t1.24.82 1.69.82q.96.37 2.31.37 2.07 0 3.2-.98 1.14-.98 1.14-2.82 0-1.03-.51-1.67-.52-.65-1.36-1.09-.85-.44-1.93-.75t-2.2-.67q-1.11-.36-2.19-.86t-1.93-1.31q-.84-.81-1.36-2.03-.51-1.21-.51-3 0-1.42.57-2.77.56-1.35 1.64-2.39 1.08-1.05 2.67-1.68 1.58-.63 3.63-.63 2.31 0 4.25.72 1.95.72 3.31 2.02m8.43-3.17v10.26q1.08-1.01 2.37-1.64 1.3-.63 3.05-.63 1.51 0 2.68.52 1.17.51 1.95 1.44.78.92 1.19 2.21.4 1.29.4 2.84v11.75h-4.44v-11.75q0-1.7-.78-2.62-.77-.93-2.35-.93-1.16 0-2.16.52-1.01.52-1.91 1.42v13.36h-4.45v-26.75zm24.03 7.99q2.05 0 3.73.67 1.69.67 2.88 1.89 1.2 1.22 1.85 2.99.65 1.76.65 3.94 0 2.2-.65 3.96t-1.85 3.01q-1.19 1.24-2.88 1.9-1.68.67-3.73.67-2.07 0-3.76-.67-1.7-.66-2.89-1.9-1.2-1.25-1.86-3.01-.65-1.76-.65-3.96 0-2.18.65-3.94.66-1.77 1.86-2.99 1.19-1.22 2.89-1.89 1.69-.67 3.76-.67m0 15.61q2.3 0 3.41-1.55t1.11-4.53q0-2.99-1.11-4.56-1.11-1.56-3.41-1.56-2.34 0-3.47 1.57-1.12 1.58-1.12 4.55t1.12 4.52q1.13 1.56 3.47 1.56m35.49-15.32h3.39l-5.87 18.47h-3.56q-.62 0-.85-.79l-3.31-10.68q-.16-.54-.3-1.07-.13-.53-.22-1.07-.11.54-.25 1.09-.13.55-.29 1.09l-3.37 10.64q-.22.79-.95.79h-3.42l-5.85-18.47h3.54q.49 0 .83.24.34.23.45.59l2.65 9.86q.19.81.35 1.59.15.77.26 1.55.2-.78.42-1.55.23-.78.48-1.59l3.06-9.9q.11-.36.42-.59.32-.23.77-.23h1.96q.47 0 .8.23t.44.59l2.97 9.9q.23.81.44 1.6.21.78.41 1.55.23-1.53.66-3.15l2.72-9.86q.13-.36.45-.59.32-.24.77-.24m20.31 2.29-1.17 1.62q-.2.25-.39.39-.19.15-.55.15-.34 0-.66-.21-.33-.21-.78-.47t-1.07-.46q-.62-.21-1.54-.21-1.17 0-2.05.42t-1.47 1.22q-.58.79-.87 1.91-.29 1.13-.29 2.55 0 1.48.32 2.63.31 1.15.91 1.93.59.79 1.44 1.19.84.41 1.9.41 1.07 0 1.72-.26.66-.27 1.11-.58.45-.32.78-.58.34-.26.75-.26.54 0 .81.42l1.28 1.62q-.74.86-1.6 1.45-.87.58-1.79.93-.93.35-1.91.5-.98.14-1.96.14-1.71 0-3.22-.64t-2.64-1.86q-1.14-1.23-1.79-3-.66-1.77-.66-4.04 0-2.03.58-3.77.59-1.74 1.72-3.01 1.14-1.27 2.81-1.99t3.85-.72q2.07 0 3.63.67t2.8 1.91m12.71 11.41v-3.11q-1.93.09-3.24.33-1.32.24-2.11.62t-1.13.88q-.35.51-.35 1.1 0 1.17.7 1.67.69.51 1.81.51 1.36 0 2.36-.5 1-.49 1.96-1.5m-9.4-9.7-.79-1.42q3.18-2.92 7.67-2.92 1.62 0 2.89.53 1.28.53 2.16 1.48.89.94 1.35 2.26.45 1.31.45 2.88v11.66h-2.01q-.63 0-.97-.19-.35-.19-.54-.76l-.4-1.34q-.7.63-1.37 1.11-.66.48-1.38.8-.72.33-1.54.5t-1.81.17q-1.17 0-2.16-.32-.99-.31-1.71-.94t-1.12-1.57q-.39-.93-.39-2.18 0-.7.23-1.39t.77-1.32q.53-.63 1.37-1.19.85-.56 2.08-.97 1.23-.42 2.87-.68t3.75-.31v-1.08q0-1.86-.8-2.75-.79-.89-2.28-.89-1.08 0-1.79.25t-1.25.57q-.54.31-.98.57-.45.25-.99.25-.46 0-.79-.24-.32-.25-.52-.57m30.19-2-1.01 1.6q-.18.29-.38.41-.2.11-.5.11-.33 0-.7-.18t-.85-.4q-.49-.23-1.11-.41t-1.47-.18q-1.31 0-2.06.56-.74.56-.74 1.46 0 .59.38 1 .39.4 1.03.71t1.45.55 1.65.53q.83.29 1.64.66t1.45.93q.64.57 1.03 1.36.38.79.38 1.91 0 1.33-.47 2.46-.48 1.12-1.42 1.94-.93.82-2.31 1.28t-3.18.46q-.95 0-1.86-.17t-1.74-.48q-.84-.31-1.55-.72t-1.25-.9l1.02-1.69q.2-.31.47-.47t.68-.16q.42 0 .79.23.37.24.85.51.49.27 1.15.5.65.23 1.66.23.79 0 1.36-.18.57-.19.94-.5.36-.31.54-.71.17-.41.17-.84 0-.65-.39-1.06t-1.03-.72-1.45-.55q-.82-.24-1.68-.53-.85-.29-1.67-.67-.82-.39-1.46-.99-.64-.59-1.03-1.45-.38-.87-.38-2.09 0-1.14.45-2.16.45-1.03 1.32-1.79.87-.77 2.18-1.23 1.3-.46 3.01-.46 1.91 0 3.48.63 1.56.63 2.61 1.66m7.05 5.11h8.39q0-.86-.24-1.63-.25-.76-.73-1.34-.49-.57-1.23-.91-.75-.33-1.74-.33-1.93 0-3.03 1.1-1.11 1.1-1.42 3.11m11.34 2.68h-11.43q.11 1.43.51 2.46.39 1.04 1.04 1.71.65.68 1.54 1.01t1.97.33 1.86-.25q.79-.25 1.37-.56.59-.3 1.03-.56.44-.25.85-.25.56 0 .83.42l1.28 1.62q-.74.86-1.66 1.45-.92.58-1.91.93-1 .35-2.04.5-1.03.14-2.01.14-1.92 0-3.58-.64-1.65-.64-2.88-1.89-1.22-1.25-1.92-3.1-.71-1.84-.71-4.27 0-1.89.62-3.55.61-1.67 1.75-2.9 1.14-1.24 2.79-1.96t3.72-.72q1.74 0 3.22.56t2.54 1.63 1.66 2.63q.61 1.56.61 3.55 0 1.01-.22 1.36t-.83.35m3.73 6.23q0-.56.21-1.06.2-.5.56-.86t.87-.58q.5-.22 1.08-.22.57 0 1.07.22.49.22.86.58t.59.86q.21.5.21 1.06 0 .58-.21 1.07-.22.5-.59.86t-.86.57q-.5.2-1.07.2-.58 0-1.08-.2-.51-.21-.87-.57t-.56-.86q-.21-.49-.21-1.07"/></svg>