<svg xmlns="http://www.w3.org/2000/svg" width="700" height="400" viewBox="0 0 700 400"><rect width="100%" height="100%" fill="#6b3930"/><path fill="#ffffff" d="M174.645 146.165h5.28v37.6h-6.17v-24.28q0-1.46.16-3.15l-11.36 21.35q-.81 1.53-2.47 1.53h-.99q-1.66 0-2.47-1.53l-11.49-21.43q.08.86.13 1.69t.05 1.54v24.28h-6.16v-37.6h5.28q.46 0 .8.03t.61.13q.28.1.5.34.22.23.43.62l11.25 20.88q.45.83.82 1.72.38.88.74 1.82.37-.97.76-1.86.39-.9.83-1.73l11.1-20.83q.21-.39.44-.62.24-.24.51-.34t.61-.13.81-.03m26.73 30.71v-4.5q-2.79.13-4.68.48-1.9.35-3.05.9-1.14.55-1.63 1.27-.5.73-.5 1.59 0 1.69 1 2.42t2.62.73q1.97 0 3.41-.72 1.45-.71 2.83-2.17m-13.58-14.01-1.14-2.06q4.6-4.21 11.08-4.21 2.34 0 4.18.77 1.85.76 3.12 2.13 1.28 1.36 1.94 3.26t.66 4.16v16.85h-2.91q-.91 0-1.4-.27-.5-.28-.78-1.11l-.58-1.92q-1.01.91-1.97 1.6t-2 1.15q-1.04.47-2.23.72-1.18.25-2.61.25-1.69 0-3.12-.46-1.43-.45-2.47-1.36t-1.61-2.27q-.57-1.35-.57-3.14 0-1.02.33-2.02.34-1 1.11-1.91t1.99-1.71q1.22-.81 3-1.41t4.15-.97q2.36-.38 5.41-.46v-1.56q0-2.68-1.15-3.96-1.14-1.29-3.3-1.29-1.56 0-2.59.36-1.02.37-1.8.82-.78.46-1.42.82-.64.37-1.42.37-.67 0-1.14-.36-.47-.35-.76-.81m25.87-17.74h6.43v22.13h1.19q.65 0 1.03-.17t.77-.69l6.63-8.19q.41-.54.92-.83t1.31-.29h5.88l-8.3 9.91q-.88 1.17-1.92 1.79.55.39.97.91.43.52.82 1.12l8.9 12.95h-5.8q-.76 0-1.3-.25-.55-.24-.91-.89l-6.81-10.12q-.37-.6-.76-.78t-1.17-.18h-1.45v12.22h-6.43zm28.01 11.96h6.44v26.68h-6.44zm7.33-7.77q0 .83-.34 1.56t-.9 1.27q-.56.55-1.31.87-.75.33-1.61.33-.83 0-1.58-.33-.74-.32-1.28-.87-.55-.54-.87-1.27-.33-.73-.33-1.56 0-.86.33-1.61.32-.76.87-1.3.54-.55 1.28-.87.75-.33 1.58-.33.86 0 1.61.33.75.32 1.31.87.56.54.9 1.3.34.75.34 1.61m11.23 8.94.44 2.11q.81-.81 1.7-1.5.9-.68 1.9-1.17 1-.48 2.15-.75 1.14-.27 2.49-.27 2.19 0 3.88.74t2.82 2.08 1.71 3.2q.59 1.86.59 4.09v16.98h-6.42v-16.98q0-2.44-1.12-3.78t-3.41-1.34q-1.66 0-3.12.75-1.45.76-2.75 2.06v19.29h-6.42v-26.68h3.92q1.25 0 1.64 1.17m33.51 11.52q1.2 0 2.08-.32.89-.33 1.47-.9.59-.57.89-1.38.3-.8.3-1.77 0-1.97-1.19-3.13-1.18-1.16-3.55-1.16-2.36 0-3.55 1.16-1.18 1.16-1.18 3.13 0 .94.3 1.75.3.8.88 1.39.59.58 1.49.91.89.32 2.06.32m7.26 15.19q0-.78-.47-1.28-.47-.49-1.27-.77-.81-.27-1.89-.4t-2.29-.19q-1.21-.07-2.49-.12-1.29-.05-2.51-.21-1.07.6-1.73 1.41-.66.8-.66 1.87 0 .7.35 1.31t1.11 1.05q.77.45 1.99.69 1.23.25 2.99.25 1.8 0 3.1-.27 1.3-.28 2.14-.76.85-.48 1.24-1.14t.39-1.44m-1.28-26.97h7.67v2.4q0 1.14-1.37 1.4l-2.4.44q.55 1.38.55 3.02 0 1.97-.79 3.57-.8 1.6-2.2 2.72t-3.32 1.73q-1.91.61-4.12.61-.78 0-1.5-.08-.73-.08-1.43-.21-1.25.76-1.25 1.69 0 .81.74 1.19.74.37 1.96.53t2.78.19q1.56.04 3.2.17t3.2.46q1.56.32 2.78 1.03 1.22.7 1.96 1.91.75 1.21.75 3.1 0 1.77-.88 3.44-.87 1.66-2.52 2.96t-4.05 2.09q-2.41.8-5.48.8-3.01 0-5.25-.59-2.23-.58-3.72-1.56-1.48-.97-2.21-2.25-.72-1.27-.72-2.65 0-1.87 1.13-3.13t3.1-2.02q-1.06-.54-1.69-1.45-.62-.91-.62-2.4 0-.59.22-1.23t.65-1.26q.43-.63 1.08-1.19.65-.55 1.53-1-2.02-1.09-3.18-2.91t-1.16-4.26q0-1.98.79-3.58.8-1.6 2.21-2.73 1.42-1.13 3.36-1.73 1.94-.59 4.22-.59 1.72 0 3.23.35t2.75 1.02m50.05-11.83h7.02v37.6h-7.02v-16.43h-17.65v16.43h-7.02v-37.6h7.02v16.18h17.65zm19.45 21.19h12.12q0-1.24-.35-2.35-.35-1.1-1.06-1.94-.7-.83-1.78-1.31t-2.51-.48q-2.78 0-4.38 1.59-1.6 1.58-2.04 4.49m16.38 3.88h-16.51q.16 2.05.73 3.55.57 1.49 1.51 2.47.93.97 2.22 1.45t2.85.48 2.69-.36 1.97-.81q.85-.44 1.49-.8.63-.37 1.23-.37.81 0 1.2.6l1.84 2.34q-1.06 1.25-2.39 2.09-1.32.85-2.77 1.36-1.44.5-2.94.71-1.49.21-2.89.21-2.79 0-5.18-.92-2.39-.93-4.16-2.73-1.77-1.81-2.78-4.48-1.01-2.66-1.01-6.17 0-2.73.88-5.14.88-2.4 2.53-4.18 1.66-1.78 4.03-2.82 2.38-1.04 5.37-1.04 2.53 0 4.66.8 2.13.81 3.66 2.36 1.54 1.54 2.41 3.79t.87 5.14q0 1.45-.31 1.96t-1.2.51m20.41 5.64v-4.5q-2.78.13-4.68.48t-3.04.9-1.64 1.27q-.49.73-.49 1.59 0 1.69 1 2.42t2.61.73q1.98 0 3.42-.72 1.44-.71 2.82-2.17m-13.57-14.01-1.14-2.06q4.6-4.21 11.07-4.21 2.34 0 4.19.77 1.84.76 3.12 2.13 1.27 1.36 1.93 3.26.67 1.9.67 4.16v16.85h-2.91q-.91 0-1.41-.27-.49-.28-.78-1.11l-.57-1.92q-1.01.91-1.98 1.6-.96.69-2 1.15-1.04.47-2.22.72t-2.61.25q-1.69 0-3.12-.46-1.43-.45-2.47-1.36t-1.62-2.27q-.57-1.35-.57-3.14 0-1.02.34-2.02t1.1-1.91q.77-.91 1.99-1.71 1.23-.81 3.01-1.41t4.14-.97q2.37-.38 5.41-.46v-1.56q0-2.68-1.14-3.96-1.15-1.29-3.3-1.29-1.56 0-2.59.36-1.03.37-1.81.82-.78.46-1.42.82-.63.37-1.41.37-.68 0-1.15-.36-.46-.35-.75-.81m42.61 13v-11.96q-1.09-1.33-2.38-1.88-1.28-.54-2.76-.54-1.46 0-2.63.54-1.17.55-2 1.65-.83 1.11-1.28 2.81-.44 1.71-.44 4.02 0 2.34.38 3.97.38 1.62 1.08 2.65.7 1.02 1.71 1.48 1.02.45 2.27.45 2 0 3.4-.83 1.41-.83 2.65-2.36m0-30.74h6.43v38.64h-3.93q-1.27 0-1.61-1.17l-.55-2.57q-1.61 1.84-3.7 2.99-2.1 1.14-4.88 1.14-2.18 0-4-.91t-3.14-2.64q-1.31-1.73-2.02-4.28-.72-2.54-.72-5.82 0-2.96.81-5.51.8-2.55 2.31-4.42t3.62-2.93q2.1-1.05 4.73-1.05 2.23 0 3.82.7t2.83 1.9zm12.85 0h6.42v38.64h-6.42zm13.05 11.96h6.45v26.68h-6.45zm7.33-7.77q0 .83-.34 1.56-.33.73-.89 1.27-.56.55-1.32.87-.75.33-1.61.33-.83 0-1.57-.33-.74-.32-1.29-.87-.54-.54-.87-1.27-.32-.73-.32-1.56 0-.86.32-1.61.33-.76.87-1.3.55-.55 1.29-.87.74-.33 1.57-.33.86 0 1.61.33.76.32 1.32.87.56.54.89 1.3.34.75.34 1.61m11.23 8.94.45 2.11q.8-.81 1.7-1.5.9-.68 1.9-1.17 1-.48 2.14-.75 1.15-.27 2.5-.27 2.18 0 3.87.74t2.82 2.08 1.72 3.2q.58 1.86.58 4.09v16.98h-6.42v-16.98q0-2.44-1.12-3.78-1.11-1.34-3.4-1.34-1.67 0-3.12.75-1.46.76-2.76 2.06v19.29h-6.42v-26.68h3.93q1.24 0 1.63 1.17m28.84 9.1h12.11q0-1.24-.35-2.35-.35-1.1-1.05-1.94-.7-.83-1.78-1.31t-2.51-.48q-2.78 0-4.38 1.59-1.6 1.58-2.04 4.49m16.38 3.88h-16.51q.15 2.05.73 3.55.57 1.49 1.5 2.47.94.97 2.23 1.45 1.28.48 2.84.48t2.69-.36q1.14-.36 1.98-.81.85-.44 1.48-.8.64-.37 1.24-.37.8 0 1.19.6l1.85 2.34q-1.07 1.25-2.39 2.09-1.33.85-2.77 1.36-1.44.5-2.94.71-1.49.21-2.9.21-2.78 0-5.17-.92-2.39-.93-4.16-2.73-1.77-1.81-2.78-4.48-1.02-2.66-1.02-6.17 0-2.73.89-5.14.88-2.4 2.53-4.18t4.03-2.82 5.37-1.04q2.52 0 4.65.8 2.14.81 3.67 2.36 1.53 1.54 2.4 3.79.88 2.25.88 5.14 0 1.45-.32 1.96-.31.51-1.19.51m24.05-11.26-1.46 2.31q-.26.42-.54.59-.29.17-.73.17-.47 0-1-.26-.54-.26-1.24-.59-.7-.32-1.6-.58-.89-.26-2.12-.26-1.89 0-2.97.8-1.08.81-1.08 2.11 0 .86.56 1.44.56.59 1.48 1.03t2.09.79 2.38.77 2.38.95 2.09 1.35q.93.82 1.48 1.96.56 1.15.56 2.76 0 1.92-.69 3.55-.68 1.62-2.04 2.81-1.35 1.18-3.34 1.84-1.99.67-4.59.67-1.37 0-2.69-.25-1.31-.25-2.52-.69t-2.24-1.04q-1.02-.6-1.8-1.3l1.48-2.44q.29-.45.68-.68t.98-.23q.6 0 1.13.33.54.34 1.24.73t1.65.73 2.41.34q1.14 0 1.96-.28.82-.27 1.35-.71t.78-1.03q.25-.58.25-1.21 0-.93-.56-1.53t-1.48-1.04q-.93-.44-2.11-.79t-2.42-.77q-1.23-.42-2.42-.98-1.18-.55-2.1-1.41t-1.48-2.11-.56-3.01q0-1.64.65-3.12.65-1.49 1.91-2.59 1.26-1.11 3.14-1.77 1.89-.66 4.36-.66 2.76 0 5.02.91t3.77 2.39m4.18 20.25q0-.8.3-1.53t.82-1.25 1.25-.83 1.56-.31 1.55.31q.71.31 1.24.83.54.52.85 1.25t.31 1.53q0 .84-.31 1.55-.31.72-.85 1.24-.53.52-1.24.82-.72.29-1.55.29t-1.56-.29q-.73-.3-1.25-.82t-.82-1.24q-.3-.71-.3-1.55m-360.4 60.3q2.03 0 3.63-.68 1.6-.67 2.69-1.9 1.09-1.22 1.68-2.96.58-1.74.58-3.9v-22.52h7v22.52q0 3.35-1.08 6.2t-3.09 4.92q-2.02 2.06-4.91 3.22-2.88 1.16-6.5 1.16-3.64 0-6.52-1.16-2.89-1.16-4.9-3.22-2.02-2.07-3.1-4.92t-1.08-6.2v-22.52h7v22.49q0 2.16.58 3.9.59 1.75 1.69 2.98 1.11 1.24 2.71 1.91 1.6.68 3.62.68m28.03-19.87.44 2.11q.81-.81 1.71-1.49.89-.69 1.9-1.17 1-.49 2.14-.76t2.5-.27q2.18 0 3.87.74t2.82 2.08 1.72 3.2q.58 1.86.58 4.09v16.98h-6.42v-16.98q0-2.44-1.12-3.78t-3.4-1.34q-1.67 0-3.12.75-1.46.76-2.76 2.06v19.29h-6.42v-26.68h3.93q1.24 0 1.63 1.17m23.97-1.17h6.45v26.68h-6.45zm7.34-7.77q0 .83-.34 1.56t-.9 1.27q-.56.55-1.31.88-.76.32-1.61.32-.84 0-1.58-.32-.74-.33-1.28-.88-.55-.54-.87-1.27-.33-.73-.33-1.56 0-.86.33-1.61.32-.76.87-1.3.54-.55 1.28-.87.74-.33 1.58-.33.85 0 1.61.33.75.32 1.31.87.56.54.9 1.3.34.75.34 1.61m5.74-4.19h6.42v38.64h-6.42zm24.65 11.55q2.96 0 5.4.96 2.43.96 4.16 2.73 1.72 1.77 2.66 4.32.94 2.54.94 5.69 0 3.17-.94 5.72t-2.66 4.34q-1.73 1.8-4.16 2.76-2.44.96-5.4.96-2.99 0-5.43-.96-2.45-.96-4.18-2.76-1.73-1.79-2.67-4.34-.95-2.55-.95-5.72 0-3.15.95-5.69.94-2.55 2.67-4.32t4.18-2.73q2.44-.96 5.43-.96m0 22.54q3.33 0 4.93-2.24 1.6-2.23 1.6-6.55 0-4.31-1.6-6.58-1.6-2.26-4.93-2.26-3.38 0-5 2.28-1.63 2.27-1.63 6.56t1.63 6.54q1.62 2.25 5 2.25m24.49 4.55h-6.42v-26.68h3.93q1.24 0 1.63 1.17l.42 1.98q.7-.78 1.47-1.43t1.64-1.12 1.87-.74 2.2-.27q2.52 0 4.14 1.36 1.63 1.37 2.43 3.63.63-1.33 1.56-2.27.94-.95 2.06-1.55t2.38-.89q1.26-.28 2.53-.28 2.21 0 3.93.67 1.71.68 2.88 1.98t1.79 3.17q.61 1.87.61 4.29v16.98h-6.43v-16.98q0-2.55-1.11-3.83-1.12-1.29-3.28-1.29-.99 0-1.83.34-.85.34-1.48.97-.64.64-1.01 1.6-.36.96-.36 2.21v16.98h-6.45v-16.98q0-2.68-1.08-3.9t-3.16-1.22q-1.4 0-2.61.69t-2.25 1.88zm37.34-26.68h6.45v26.68h-6.45zm7.33-7.77q0 .83-.34 1.56t-.89 1.27q-.56.55-1.32.88-.75.32-1.61.32-.83 0-1.57-.32-.74-.33-1.29-.88-.55-.54-.87-1.27-.33-.73-.33-1.56 0-.86.33-1.61.32-.76.87-1.3.55-.55 1.29-.87.74-.33 1.57-.33.86 0 1.61.33.76.32 1.32.87.55.54.89 1.3.34.75.34 1.61m17.47 7.36q2.97 0 5.4.96t4.16 2.73 2.66 4.32q.94 2.54.94 5.69 0 3.17-.94 5.72-.93 2.55-2.66 4.34-1.73 1.8-4.16 2.76t-5.4.96q-2.99 0-5.43-.96-2.45-.96-4.17-2.76-1.73-1.79-2.68-4.34t-.95-5.72q0-3.15.95-5.69.95-2.55 2.68-4.32 1.72-1.77 4.17-2.73 2.44-.96 5.43-.96m0 22.54q3.33 0 4.93-2.24 1.6-2.23 1.6-6.55 0-4.31-1.6-6.58-1.6-2.26-4.93-2.26-3.38 0-5 2.28-1.63 2.27-1.63 6.56t1.63 6.54q1.62 2.25 5 2.25m53.49-29.51-1.75 3.3q-.31.55-.66.8-.35.24-.87.24-.55 0-1.18-.4-.64-.4-1.52-.9-.89-.49-2.07-.89-1.18-.41-2.8-.41-1.45 0-2.54.35-1.1.35-1.84.98-.74.62-1.1 1.49-.37.87-.37 1.91 0 1.33.74 2.21.75.89 1.97 1.51 1.22.63 2.78 1.12t3.2 1.05 3.2 1.3 2.78 1.88q1.22 1.13 1.96 2.76.74 1.64.74 3.98 0 2.55-.87 4.77-.87 2.23-2.55 3.88-1.67 1.65-4.09 2.6t-5.54.95q-1.79 0-3.54-.35-1.74-.36-3.34-1.01t-3-1.56-2.5-2.02l2.06-3.36q.26-.36.67-.61.42-.25.89-.25.65 0 1.4.54.76.53 1.8 1.18t2.43 1.18q1.39.54 3.34.54 2.99 0 4.62-1.42 1.64-1.42 1.64-4.07 0-1.48-.74-2.42-.74-.93-1.96-1.57t-2.78-1.08-3.17-.96q-1.62-.52-3.18-1.25t-2.78-1.9-1.96-2.92q-.74-1.76-.74-4.33 0-2.06.82-4.01t2.38-3.45q1.56-1.51 3.84-2.42 2.29-.91 5.26-.91 3.32 0 6.13 1.04t4.79 2.91m14.63 34.48q-3.48 0-5.34-1.97-1.86-1.96-1.86-5.42v-14.9h-2.73q-.52 0-.88-.33-.37-.34-.37-1.02v-2.55l4.29-.7 1.35-7.28q.14-.52.5-.8.36-.29.94-.29h3.32v8.4h7.13v4.57h-7.13v14.46q0 1.25.61 1.95.62.7 1.68.7.6 0 1-.14.41-.14.7-.3.3-.16.54-.3.23-.14.46-.14.29 0 .47.14.19.14.39.43l1.93 3.12q-1.41 1.17-3.23 1.77t-3.77.6m29.54-27.1h5.15l-14.54 34.01q-.28.68-.74 1.03-.45.35-1.39.35h-4.78l4.99-10.71-10.79-24.68h5.64q.76 0 1.18.37.43.36.64.83l5.67 13.83q.29.7.48 1.41.2.7.38 1.43.23-.73.46-1.45.24-.71.53-1.41l5.35-13.81q.21-.52.69-.86t1.08-.34m8.42-11.96h6.43v38.64h-6.43zm17.92 22.23h12.11q0-1.24-.35-2.35-.35-1.1-1.05-1.94-.7-.83-1.78-1.31t-2.51-.48q-2.78 0-4.38 1.59-1.6 1.58-2.04 4.49m16.38 3.88h-16.51q.15 2.05.73 3.55.57 1.49 1.5 2.47.94.97 2.23 1.45 1.28.48 2.84.48t2.69-.36q1.14-.36 1.98-.81.85-.44 1.48-.8.64-.37 1.24-.37.8 0 1.19.6l1.85 2.34q-1.07 1.25-2.39 2.1-1.33.84-2.77 1.35-1.44.5-2.94.71-1.49.21-2.9.21-2.78 0-5.17-.92-2.39-.93-4.16-2.73-1.77-1.81-2.79-4.47-1.01-2.67-1.01-6.18 0-2.73.88-5.13.89-2.41 2.54-4.19t4.03-2.82 5.37-1.04q2.52 0 4.65.8 2.13.81 3.67 2.36 1.53 1.54 2.4 3.79t.87 5.14q0 1.45-.31 1.96t-1.19.51m5.38 8.99q0-.8.3-1.53t.82-1.25 1.25-.83q.72-.31 1.56-.31.83 0 1.54.31.72.31 1.25.83t.84 1.25q.32.73.32 1.53 0 .84-.32 1.55-.31.72-.84 1.24t-1.25.82q-.71.29-1.54.29-.84 0-1.56-.29-.73-.3-1.25-.82t-.82-1.24q-.3-.71-.3-1.55"/></svg>