<svg xmlns="http://www.w3.org/2000/svg" width="700" height="400" viewBox="0 0 700 400"><rect width="100%" height="100%" fill="#89c4bc"/><path fill="#333333" d="M270.535 118.85h5.63q2.55 0 4.44-.64t3.12-1.76q1.22-1.12 1.82-2.66.61-1.54.61-3.39 0-3.68-2.43-5.66-2.43-1.97-7.42-1.97h-5.77zm16.69 7.5 12.12 17.89h-8.14q-2.31 0-3.35-1.81l-10.18-15.51q-.57-.87-1.26-1.24-.68-.37-2.02-.37h-3.86v18.93h-9.01V95.8h14.78q4.92 0 8.46 1.02 3.53 1.02 5.79 2.87 2.26 1.84 3.33 4.4 1.08 2.56 1.08 5.64 0 2.45-.72 4.63t-2.08 3.95q-1.36 1.78-3.35 3.12t-4.54 2.11q.87.5 1.61 1.19.73.68 1.34 1.62m22.61-3.25h15.61q0-1.61-.45-3.03t-1.36-2.5q-.9-1.07-2.29-1.69t-3.24-.62q-3.58 0-5.64 2.05-2.06 2.04-2.63 5.79m21.1 4.99h-21.27q.2 2.65.94 4.58.74 1.92 1.94 3.18 1.21 1.25 2.87 1.87t3.67.62 3.46-.47q1.46-.46 2.55-1.03t1.91-1.04 1.59-.47q1.04 0 1.54.77l2.38 3.01q-1.37 1.61-3.08 2.7t-3.57 1.74q-1.86.66-3.79.92-1.92.27-3.73.27-3.59 0-6.67-1.19t-5.36-3.51q-2.28-2.33-3.58-5.77-1.31-3.43-1.31-7.95 0-3.52 1.14-6.62t3.27-5.39q2.12-2.3 5.19-3.64 3.06-1.34 6.92-1.34 3.25 0 5.99 1.04 2.75 1.04 4.73 3.03 1.97 2 3.1 4.89 1.12 2.9 1.12 6.62 0 1.88-.4 2.53-.41.65-1.55.65m16.42-8.17v15.41q1.41 1.71 3.07 2.41 1.65.7 3.5.7 1.91 0 3.43-.68 1.52-.69 2.6-2.15 1.07-1.45 1.64-3.71.57-2.27.57-5.42 0-5.66-1.88-8.19t-5.39-2.53q-2.38 0-4.16 1.09-1.77 1.09-3.38 3.07m0-25.46v19.63q2.08-2.18 4.61-3.47t5.77-1.29q2.99 0 5.38 1.18 2.4 1.17 4.09 3.36 1.69 2.2 2.59 5.31.91 3.12.91 7 0 4.19-1.04 7.61-1.04 3.41-2.96 5.84-1.93 2.43-4.64 3.77-2.72 1.34-6.03 1.34-1.61 0-2.92-.32-1.3-.31-2.41-.88t-2.03-1.39-1.76-1.83l-.36 2.31q-.21.87-.69 1.24-.49.37-1.32.37h-5.46V94.46zm36.28 28.64h15.61q0-1.61-.45-3.03t-1.36-2.5q-.9-1.07-2.29-1.69t-3.24-.62q-3.58 0-5.64 2.05-2.06 2.04-2.63 5.79m21.11 4.99h-21.28q.2 2.65.94 4.58.74 1.92 1.94 3.18 1.21 1.25 2.87 1.87t3.67.62 3.46-.47q1.46-.46 2.55-1.03t1.91-1.04 1.59-.47q1.04 0 1.54.77l2.38 3.01q-1.37 1.61-3.08 2.7t-3.57 1.74q-1.86.66-3.79.92-1.92.27-3.73.27-3.59 0-6.67-1.19t-5.36-3.51q-2.28-2.33-3.58-5.77-1.31-3.43-1.31-7.95 0-3.52 1.14-6.62t3.27-5.39q2.12-2.3 5.19-3.64 3.06-1.34 6.92-1.34 3.25 0 5.99 1.04 2.75 1.04 4.73 3.03 1.97 2 3.1 4.89 1.12 2.9 1.12 6.62 0 1.88-.4 2.53-.41.65-1.54.65m8.24-33.63h8.27v49.78h-8.27zm15.34 45.22q0-1.03.38-1.97.39-.94 1.06-1.61t1.61-1.07 2.01-.4 1.99.4 1.61 1.07 1.09 1.61.4 1.97q0 1.08-.4 2t-1.09 1.59-1.61 1.05q-.92.39-1.99.39t-2.01-.39q-.94-.38-1.61-1.05t-1.06-1.59q-.38-.92-.38-2m-139.68 73.54q.74 0 1.31.57l3.55 3.85q-2.95 3.65-7.25 5.59-4.31 1.95-10.34 1.95-5.39 0-9.7-1.85-4.3-1.84-7.35-5.12t-4.67-7.84q-1.63-4.56-1.63-9.95 0-5.46 1.74-10 1.75-4.54 4.91-7.82 3.17-3.29 7.56-5.11 4.38-1.83 9.71-1.83 5.29 0 9.4 1.75 4.1 1.74 6.98 4.55l-3.01 4.19q-.27.4-.69.7t-1.16.3q-.5 0-1.03-.28-.54-.29-1.18-.7-.63-.42-1.47-.93-.84-.5-1.94-.92-1.11-.42-2.57-.7-1.45-.29-3.36-.29-3.25 0-5.95 1.16t-4.64 3.35-3.01 5.36q-1.08 3.17-1.08 7.22 0 4.09 1.16 7.27t3.13 5.36q1.98 2.18 4.66 3.33 2.68 1.16 5.76 1.16 1.84 0 3.33-.2t2.75-.64q1.26-.43 2.38-1.12t2.23-1.69q.33-.31.7-.49t.77-.18m24.96-23.49q3.82 0 6.95 1.24t5.36 3.52 3.43 5.56q1.21 3.28 1.21 7.34 0 4.08-1.21 7.37-1.2 3.28-3.43 5.59t-5.36 3.55-6.95 1.24q-3.85 0-7-1.24t-5.38-3.55-3.45-5.59q-1.22-3.29-1.22-7.37 0-4.06 1.22-7.34t3.45-5.56 5.38-3.52 7-1.24m0 29.05q4.29 0 6.35-2.88t2.06-8.45q0-5.56-2.06-8.47-2.06-2.92-6.35-2.92-4.36 0-6.45 2.94-2.09 2.93-2.09 8.45 0 5.53 2.09 8.43t6.45 2.9m44.85-4.32v-15.41q-1.4-1.71-3.06-2.42-1.66-.7-3.57-.7-1.87 0-3.38.7-1.51.71-2.58 2.13-1.07 1.43-1.64 3.62t-.57 5.18q0 3.01.48 5.1.49 2.1 1.39 3.42.91 1.32 2.21 1.91 1.31.59 2.92.59 2.58 0 4.39-1.08 1.81-1.07 3.41-3.04m0-39.6h8.28v49.78h-5.06q-1.64 0-2.08-1.51l-.7-3.31q-2.08 2.37-4.77 3.85-2.7 1.47-6.28 1.47-2.82 0-5.16-1.17-2.35-1.17-4.04-3.4t-2.61-5.51-.92-7.5q0-3.82 1.03-7.11 1.04-3.28 2.99-5.69 1.94-2.41 4.65-3.77 2.72-1.36 6.1-1.36 2.88 0 4.92.91 2.05.9 3.65 2.44zm22.99 28.64h15.61q0-1.61-.46-3.03-.45-1.42-1.35-2.5-.91-1.07-2.3-1.69t-3.23-.62q-3.58 0-5.64 2.05-2.06 2.04-2.63 5.79m21.1 4.99h-21.27q.2 2.65.94 4.58.73 1.92 1.94 3.18 1.21 1.25 2.86 1.87 1.66.62 3.67.62t3.47-.46q1.46-.47 2.55-1.04 1.08-.57 1.9-1.04.83-.47 1.6-.47 1.03 0 1.54.77l2.38 3.01q-1.38 1.61-3.09 2.7t-3.56 1.74q-1.86.66-3.79.92-1.93.27-3.74.27-3.58 0-6.66-1.19t-5.36-3.51q-2.28-2.33-3.59-5.77-1.3-3.43-1.3-7.95 0-3.52 1.14-6.62t3.26-5.39q2.13-2.3 5.2-3.64 3.06-1.34 6.91-1.34 3.25 0 6 1.04t4.72 3.03q1.98 2 3.1 4.89 1.12 2.9 1.12 6.62 0 1.88-.4 2.53t-1.54.65m15.44-16.14.51 3.88q1.6-3.08 3.82-4.84 2.21-1.76 5.22-1.76 2.38 0 3.82 1.04l-.54 6.2q-.16.6-.48.85t-.86.25q-.5 0-1.49-.16-.98-.17-1.92-.17-1.38 0-2.45.4t-1.92 1.16q-.86.75-1.51 1.82t-1.22 2.45v21.17h-8.28v-34.37h4.86q1.27 0 1.77.45.51.45.67 1.63m16.49 27.73q0-1.03.38-1.97.39-.94 1.06-1.61t1.61-1.07q.93-.4 2-.4 1.08 0 2 .4t1.61 1.07q.68.67 1.08 1.61.41.94.41 1.97 0 1.08-.41 2-.4.92-1.08 1.59-.69.67-1.61 1.05-.92.39-2 .39-1.07 0-2-.39-.94-.38-1.61-1.05t-1.06-1.59q-.38-.92-.38-2m-202.03 77.93h9.12q2.51 0 4.22-.61 1.71-.6 2.73-1.61 1.02-1 1.47-2.34t.45-2.85q0-1.57-.5-2.83t-1.57-2.14q-1.07-.89-2.77-1.36-1.69-.47-4.07-.47h-9.08zm7.68-34.44h-7.68v14h7.17q4.63 0 6.99-1.67 2.36-1.68 2.36-5.33 0-3.79-2.14-5.39-2.15-1.61-6.7-1.61m-16.69-6.97h16.69q4.75 0 8.14.9 3.38.91 5.54 2.58 2.16 1.68 3.17 4.06 1 2.38 1 5.36 0 1.71-.5 3.26-.5 1.56-1.56 2.92-1.05 1.35-2.68 2.46-1.62 1.1-3.87 1.88 9.99 2.24 9.99 10.78 0 3.08-1.18 5.7-1.17 2.61-3.41 4.5-2.25 1.9-5.53 2.97t-7.51 1.07h-18.29zm49.35 27.3h15.61q0-1.61-.45-3.03t-1.36-2.5q-.9-1.07-2.29-1.69t-3.24-.62q-3.58 0-5.64 2.05-2.06 2.04-2.63 5.79m21.1 4.99h-21.27q.2 2.65.94 4.58.74 1.92 1.94 3.18 1.21 1.25 2.87 1.87 1.65.62 3.66.62t3.47-.46q1.46-.47 2.55-1.04t1.91-1.04 1.59-.47q1.04 0 1.54.77l2.38 3.01q-1.38 1.61-3.08 2.7-1.71 1.09-3.57 1.74-1.86.66-3.79.92-1.92.27-3.73.27-3.59 0-6.67-1.19t-5.36-3.51q-2.28-2.33-3.58-5.77-1.31-3.43-1.31-7.95 0-3.52 1.14-6.62t3.27-5.39q2.12-2.3 5.19-3.64 3.06-1.34 6.92-1.34 3.25 0 5.99 1.04 2.75 1.04 4.73 3.03 1.97 2 3.09 4.89 1.13 2.9 1.13 6.62 0 1.88-.41 2.53-.4.65-1.54.65m8.24-33.63h8.28v49.78h-8.28zm16.82 15.41h8.31v34.37h-8.31zm9.45-10.02q0 1.07-.44 2.01-.43.94-1.15 1.64-.72.71-1.69 1.13-.98.42-2.08.42-1.07 0-2.03-.42-.95-.42-1.66-1.13-.7-.7-1.12-1.64t-.42-2.01q0-1.1.42-2.07.42-.98 1.12-1.68.71-.7 1.66-1.12.96-.42 2.03-.42 1.1 0 2.08.42.97.42 1.69 1.12t1.15 1.68q.44.97.44 2.07m13.83 23.25h15.62q0-1.61-.46-3.03-.45-1.42-1.35-2.5-.91-1.07-2.3-1.69t-3.23-.62q-3.59 0-5.65 2.05-2.06 2.04-2.63 5.79m21.11 4.99h-21.27q.2 2.65.93 4.58.74 1.92 1.95 3.18 1.2 1.25 2.86 1.87t3.67.62 3.47-.46q1.45-.47 2.54-1.04t1.91-1.04 1.59-.47q1.04 0 1.55.77l2.37 3.01q-1.37 1.61-3.08 2.7t-3.57 1.74q-1.86.66-3.78.92-1.93.27-3.74.27-3.58 0-6.66-1.19-3.09-1.19-5.36-3.51-2.28-2.33-3.59-5.77-1.3-3.43-1.3-7.95 0-3.52 1.13-6.62 1.14-3.1 3.27-5.39 2.13-2.3 5.19-3.64 3.07-1.34 6.92-1.34 3.25 0 6 1.04 2.74 1.04 4.72 3.03 1.98 2 3.1 4.89 1.12 2.9 1.12 6.62 0 1.88-.4 2.53t-1.54.65m32.59-18.22h6.54l-13.64 34.37h-7.5l-13.64-34.37h6.84q.94 0 1.56.43.62.44.82 1.11l6.63 18.36q.54 1.61.94 3.15t.7 3.08q.34-1.54.74-3.08t.97-3.15l6.77-18.36q.23-.67.83-1.11.61-.43 1.44-.43m17.46 13.23h15.61q0-1.61-.45-3.03-.46-1.42-1.36-2.5-.9-1.07-2.29-1.69t-3.24-.62q-3.58 0-5.64 2.05-2.06 2.04-2.63 5.79m21.1 4.99h-21.27q.2 2.65.94 4.58.74 1.92 1.94 3.18 1.21 1.25 2.87 1.87 1.65.62 3.66.62t3.47-.46q1.46-.47 2.55-1.04t1.91-1.04 1.59-.47q1.04 0 1.54.77l2.38 3.01q-1.38 1.61-3.08 2.7-1.71 1.09-3.57 1.74-1.86.66-3.79.92-1.92.27-3.73.27-3.59 0-6.67-1.19t-5.36-3.51q-2.28-2.33-3.58-5.77-1.31-3.43-1.31-7.95 0-3.52 1.14-6.62t3.26-5.39q2.13-2.3 5.2-3.64 3.06-1.34 6.92-1.34 3.24 0 5.99 1.04t4.73 3.03q1.97 2 3.09 4.89 1.13 2.9 1.13 6.62 0 1.88-.41 2.53-.4.65-1.54.65m15.45-16.14.5 3.88q1.61-3.08 3.82-4.84t5.22-1.76q2.38 0 3.82 1.04l-.53 6.2q-.17.6-.49.85t-.85.25q-.51 0-1.49-.16-.99-.17-1.93-.17-1.37 0-2.45.4-1.07.4-1.92 1.16-.86.75-1.51 1.82t-1.22 2.45v21.17h-8.28v-34.37h4.86q1.27 0 1.78.45.5.45.67 1.63m16.48 27.73q0-1.03.38-1.97.39-.94 1.06-1.61t1.61-1.07 2.01-.4 1.99.4 1.61 1.07 1.09 1.61.4 1.97q0 1.08-.4 2t-1.09 1.59-1.61 1.05q-.92.39-1.99.39t-2.01-.39q-.94-.38-1.61-1.05t-1.06-1.59q-.38-.92-.38-2"/></svg>