<svg xmlns="http://www.w3.org/2000/svg" width="700" height="400" viewBox="0 0 700 400"><rect width="100%" height="100%" fill="#367599"/><path fill="#ffffff" d="M155.26 207.255q1.63 0 2.92-.54 1.3-.55 2.18-1.54.88-.98 1.35-2.39.48-1.41.48-3.15v-18.19h5.64v18.19q0 2.71-.87 5.01t-2.5 3.97q-1.62 1.67-3.95 2.6-2.34.94-5.25.94-2.94 0-5.28-.94-2.33-.93-3.95-2.6-1.63-1.67-2.5-3.97t-.87-5.01v-18.19h5.64v18.17q0 1.74.48 3.15.47 1.41 1.36 2.4.89 1 2.19 1.55 1.29.54 2.93.54m22.63-16.04.36 1.7q.65-.65 1.38-1.21.72-.55 1.53-.94t1.73-.61q.93-.22 2.02-.22 1.76 0 3.13.6 1.36.59 2.27 1.68.92 1.08 1.39 2.58t.47 3.31v13.71h-5.18v-13.71q0-1.98-.91-3.06-.9-1.08-2.75-1.08-1.34 0-2.52.61-1.17.61-2.22 1.66v15.58h-5.19v-21.55h3.17q1.01 0 1.32.95m19.37-.95h5.2v21.55h-5.2zm5.92-6.28q0 .68-.28 1.26-.27.59-.72 1.03t-1.06.71q-.61.26-1.3.26-.67 0-1.27-.26-.6-.27-1.04-.71t-.71-1.03q-.26-.58-.26-1.26 0-.69.26-1.3.27-.61.71-1.05t1.04-.7 1.27-.26q.69 0 1.3.26t1.06.7.72 1.05q.28.61.28 1.3m4.64-3.38h5.19v31.21h-5.19zm19.91 9.33q2.39 0 4.35.77 1.97.78 3.36 2.21 1.4 1.43 2.16 3.49.75 2.05.75 4.59 0 2.57-.75 4.62-.76 2.06-2.16 3.51-1.39 1.45-3.36 2.23-1.96.78-4.35.78-2.42 0-4.39-.78-1.98-.78-3.37-2.23-1.4-1.45-2.17-3.51-.76-2.05-.76-4.62 0-2.54.76-4.59.77-2.06 2.17-3.49 1.39-1.43 3.37-2.21 1.97-.77 4.39-.77m0 18.2q2.68 0 3.98-1.8 1.29-1.81 1.29-5.29 0-3.49-1.29-5.32-1.3-1.82-3.98-1.82-2.73 0-4.05 1.83-1.31 1.84-1.31 5.31 0 3.46 1.31 5.28 1.32 1.81 4.05 1.81m19.78 3.68h-5.19v-21.55h3.17q1.01 0 1.33.95l.33 1.59q.57-.63 1.19-1.15.62-.53 1.32-.9.7-.38 1.51-.6t1.78-.22q2.03 0 3.35 1.1 1.31 1.1 1.96 2.93.5-1.07 1.26-1.84.76-.76 1.66-1.25.9-.48 1.92-.71t2.05-.23q1.78 0 3.17.54 1.39.55 2.33 1.6.95 1.05 1.44 2.56t.49 3.47v13.71h-5.18v-13.71q0-2.06-.91-3.1-.9-1.04-2.64-1.04-.8 0-1.48.27-.69.28-1.2.79-.52.51-.81 1.29t-.29 1.79v13.71h-5.21v-13.71q0-2.17-.87-3.15-.87-.99-2.55-.99-1.14 0-2.12.56-.97.55-1.81 1.52zm30.15-21.55h5.21v21.55h-5.21zm5.93-6.28q0 .68-.28 1.26-.27.59-.72 1.03t-1.06.71q-.61.26-1.3.26-.68 0-1.27-.26-.6-.27-1.04-.71t-.71-1.03q-.26-.58-.26-1.26 0-.69.26-1.3.27-.61.71-1.05t1.04-.7q.59-.26 1.27-.26.69 0 1.3.26t1.06.7.72 1.05q.28.61.28 1.3m14.11 5.95q2.39 0 4.36.77 1.96.78 3.36 2.21 1.39 1.43 2.15 3.49.75 2.05.75 4.59 0 2.57-.75 4.62-.76 2.06-2.15 3.51-1.4 1.45-3.36 2.23-1.97.78-4.36.78-2.42 0-4.39-.78t-3.37-2.23-2.16-3.51q-.77-2.05-.77-4.62 0-2.54.77-4.59.76-2.06 2.16-3.49t3.37-2.21q1.97-.77 4.39-.77m0 18.2q2.69 0 3.98-1.8 1.29-1.81 1.29-5.29 0-3.49-1.29-5.32-1.29-1.82-3.98-1.82-2.73 0-4.04 1.83-1.32 1.84-1.32 5.31 0 3.46 1.32 5.28 1.31 1.81 4.04 1.81m31.27-11.42h4.22q1.55 0 2.71-.39 1.15-.39 1.92-1.11.77-.73 1.14-1.76.38-1.04.38-2.33 0-1.21-.38-2.2-.37-.99-1.13-1.68t-1.91-1.06q-1.16-.37-2.73-.37h-4.22zm-5.65-15.27h9.87q3.04 0 5.27.72 2.23.71 3.67 1.99 1.45 1.28 2.16 3.07.7 1.78.7 3.9 0 2.21-.73 4.05-.74 1.83-2.21 3.16-1.47 1.32-3.69 2.06-2.21.73-5.17.73h-4.22v10.69h-5.65zm25.24-.84h5.19v31.21h-5.19zm23.75 9.66h5.19v21.55h-3.17q-1.03 0-1.3-.95l-.36-1.72q-1.32 1.35-2.92 2.18t-3.76.83q-1.76 0-3.12-.6-1.35-.6-2.28-1.69-.92-1.1-1.39-2.6-.48-1.5-.48-3.3v-13.7h5.19v13.7q0 1.97.92 3.05.91 1.08 2.74 1.08 1.34 0 2.52-.6 1.17-.59 2.22-1.64zm18.19 10.25q.96 0 1.68-.26.71-.26 1.18-.73.48-.46.72-1.11t.24-1.43q0-1.59-.96-2.53-.95-.93-2.86-.93t-2.87.93q-.95.94-.95 2.53 0 .76.24 1.41t.71 1.12q.47.48 1.2.74.72.26 1.67.26m5.86 12.27q0-.63-.38-1.03t-1.03-.62-1.52-.33q-.87-.1-1.85-.16-.98-.05-2.02-.09t-2.02-.17q-.86.48-1.4 1.14-.54.65-.54 1.51 0 .57.29 1.06.28.49.9.85t1.61.56q.98.2 2.41.2 1.45 0 2.5-.23 1.05-.22 1.73-.6.69-.39 1-.93.32-.53.32-1.16m-1.03-21.78h6.19v1.93q0 .92-1.11 1.13l-1.93.36q.44 1.11.44 2.44 0 1.59-.64 2.89-.64 1.29-1.78 2.19-1.13.9-2.67 1.4-1.55.49-3.33.49-.63 0-1.22-.06-.59-.07-1.16-.17-1 .61-1 1.36 0 .65.6.96.59.3 1.58.43t2.25.16 2.58.13q1.32.11 2.58.37t2.25.83 1.59 1.54q.59.98.59 2.51 0 1.43-.7 2.78-.7 1.34-2.04 2.39-1.33 1.05-3.27 1.69t-4.42.64q-2.44 0-4.24-.47-1.81-.47-3.01-1.26-1.19-.79-1.78-1.82t-.59-2.14q0-1.51.91-2.53.92-1.02 2.51-1.63-.86-.44-1.36-1.17-.51-.74-.51-1.94 0-.48.18-.99.18-.52.53-1.02.34-.51.87-.96.52-.45 1.24-.81-1.64-.88-2.57-2.35-.94-1.47-.94-3.44 0-1.6.64-2.89t1.79-2.2q1.14-.92 2.71-1.4 1.56-.48 3.41-.48 1.38 0 2.6.28t2.23.83m9.64-.74h5.2v21.55h-5.2zm5.92-6.28q0 .68-.27 1.26-.28.59-.73 1.03t-1.06.71q-.61.26-1.3.26-.67 0-1.27-.26-.6-.27-1.04-.71t-.7-1.03q-.27-.58-.27-1.26 0-.69.27-1.3.26-.61.7-1.05t1.04-.7 1.27-.26q.69 0 1.3.26t1.06.7.73 1.05q.27.61.27 1.3m9.07 7.23.36 1.7q.65-.65 1.37-1.21.73-.55 1.54-.94.8-.39 1.73-.61.92-.22 2.01-.22 1.77 0 3.13.6 1.37.59 2.28 1.68.92 1.08 1.39 2.58t.47 3.31v13.71h-5.19v-13.71q0-1.98-.9-3.06t-2.75-1.08q-1.34 0-2.52.61t-2.23 1.66v15.58h-5.18v-21.55h3.17q1.01 0 1.32.95m35.87 5.5h4.22q1.55 0 2.71-.39 1.15-.39 1.92-1.11.77-.73 1.14-1.76.38-1.04.38-2.33 0-1.21-.38-2.2-.37-.99-1.13-1.68t-1.91-1.06q-1.16-.37-2.73-.37h-4.22zm-5.65-15.27h9.87q3.04 0 5.27.72 2.23.71 3.68 1.99 1.44 1.28 2.15 3.07.7 1.78.7 3.9 0 2.21-.73 4.05-.74 1.83-2.21 3.16-1.47 1.32-3.68 2.06-2.22.73-5.18.73h-4.22v10.69h-5.65zm34.71 8.49q2.4 0 4.36.77 1.96.78 3.36 2.21t2.15 3.49q.76 2.05.76 4.59 0 2.57-.76 4.62-.75 2.06-2.15 3.51t-3.36 2.23-4.36.78q-2.41 0-4.39-.78-1.97-.78-3.37-2.23-1.39-1.45-2.16-3.51-.77-2.05-.77-4.62 0-2.54.77-4.59.77-2.06 2.16-3.49 1.4-1.43 3.37-2.21 1.98-.77 4.39-.77m0 18.2q2.69 0 3.98-1.8 1.29-1.81 1.29-5.29 0-3.49-1.29-5.32-1.29-1.82-3.98-1.82-2.73 0-4.04 1.83-1.31 1.84-1.31 5.31 0 3.46 1.31 5.28 1.31 1.81 4.04 1.81m19.18-16.56.31 2.43q1.01-1.93 2.39-3.03 1.39-1.11 3.28-1.11 1.49 0 2.39.66l-.33 3.88q-.11.38-.31.54-.2.15-.53.15-.32 0-.94-.1-.62-.11-1.2-.11-.86 0-1.54.26-.67.25-1.2.72-.54.47-.95 1.14-.41.68-.77 1.54v13.27h-5.18v-21.55h3.04q.8 0 1.12.29.31.28.42 1.02m18.27 20.58q-2.82 0-4.32-1.59-1.5-1.58-1.5-4.38v-12.03h-2.21q-.42 0-.71-.27-.29-.28-.29-.82v-2.06l3.46-.57 1.09-5.88q.11-.42.4-.65.3-.23.76-.23h2.69v6.78h5.75v3.7h-5.75v11.67q0 1.01.49 1.58t1.35.57q.49 0 .81-.12.33-.11.57-.24t.43-.24q.19-.12.38-.12.23 0 .38.12.14.11.31.34l1.55 2.52q-1.13.95-2.6 1.43-1.47.49-3.04.49m19.82-5.91v-3.63q-2.25.11-3.78.39t-2.46.72q-.92.45-1.32 1.03-.4.59-.4 1.28 0 1.37.81 1.96t2.11.59q1.6 0 2.76-.58 1.17-.58 2.28-1.76m-10.96-11.31-.93-1.66q3.72-3.41 8.95-3.41 1.89 0 3.38.62t2.52 1.73q1.03 1.1 1.57 2.63.53 1.53.53 3.36v13.61h-2.35q-.74 0-1.14-.22-.39-.22-.63-.89l-.46-1.56q-.82.74-1.59 1.29-.78.56-1.62.94t-1.8.58q-.95.2-2.11.2-1.36 0-2.52-.37-1.15-.37-1.99-1.1-.84-.74-1.3-1.83-.47-1.09-.47-2.54 0-.82.28-1.63.27-.81.89-1.54.62-.74 1.61-1.39.98-.65 2.42-1.13 1.44-.49 3.35-.79 1.91-.31 4.37-.37v-1.26q0-2.16-.92-3.2-.93-1.04-2.67-1.04-1.26 0-2.09.29-.83.3-1.46.67-.63.36-1.15.66-.51.29-1.14.29-.55 0-.92-.28-.38-.29-.61-.66m20.96-14.33h5.18v31.21h-5.18z"/></svg>