<svg xmlns="http://www.w3.org/2000/svg" width="700" height="400" viewBox="0 0 700 400"><rect width="100%" height="100%" fill="#cfd649"/><path fill="#333333" d="M236.46 157.285q.42 0 .76.33l2.06 2.24q-1.71 2.13-4.22 3.26-2.5 1.13-6.01 1.13-3.14 0-5.65-1.07t-4.28-2.98q-1.77-1.92-2.72-4.57t-.95-5.79q0-3.18 1.02-5.82 1.01-2.64 2.86-4.55 1.84-1.91 4.39-2.98 2.56-1.06 5.66-1.06 3.08 0 5.47 1.01 2.39 1.02 4.06 2.66l-1.75 2.43q-.16.24-.4.41-.25.18-.67.18-.3 0-.61-.17-.31-.16-.68-.41-.37-.24-.86-.53t-1.13-.54q-.64-.24-1.49-.41-.85-.16-1.96-.16-1.89 0-3.46.67t-2.7 1.95q-1.14 1.28-1.76 3.12t-.62 4.2q0 2.38.67 4.23.67 1.86 1.82 3.12 1.15 1.27 2.71 1.94 1.56.68 3.36.68 1.07 0 1.94-.12t1.6-.37q.73-.26 1.38-.65.65-.4 1.3-.99.19-.17.41-.28.21-.11.45-.11m14.52-13.67q2.23 0 4.05.72t3.12 2.05 2 3.24.7 4.27q0 2.38-.7 4.29t-2 3.25q-1.3 1.35-3.12 2.07t-4.05.72q-2.24 0-4.07-.72-1.84-.72-3.13-2.07-1.3-1.34-2.01-3.25t-.71-4.29q0-2.36.71-4.27t2.01-3.24q1.29-1.33 3.13-2.05 1.83-.72 4.07-.72m0 16.91q2.5 0 3.7-1.68t1.2-4.91q0-3.24-1.2-4.94-1.2-1.69-3.7-1.69-2.53 0-3.75 1.7-1.22 1.71-1.22 4.93 0 3.21 1.22 4.9t3.75 1.69m17.73-15.72.33 1.58q.6-.6 1.28-1.12.67-.52 1.42-.88t1.61-.56q.86-.21 1.87-.21 1.64 0 2.91.56 1.26.55 2.11 1.56.85 1 1.29 2.4.44 1.39.44 3.07v12.73h-4.82v-12.73q0-1.84-.84-2.84-.83-1-2.55-1-1.25 0-2.34.56-1.09.57-2.07 1.54v14.47h-4.81v-20.01h2.94q.94 0 1.23.88m24.49 19.44q-2.61 0-4.01-1.47-1.39-1.47-1.39-4.07v-11.17h-2.05q-.39 0-.66-.25-.27-.26-.27-.76v-1.91l3.21-.53 1.02-5.46q.09-.39.37-.61.27-.21.7-.21h2.5v6.3h5.34v3.43h-5.34v10.84q0 .94.45 1.47.46.52 1.26.52.45 0 .75-.11.3-.1.53-.22l.4-.22q.17-.11.35-.11.21 0 .35.11.14.1.29.32l1.45 2.34q-1.06.88-2.42 1.32-1.37.45-2.83.45m11.64-12.61h9.09q0-.94-.26-1.77-.27-.83-.79-1.45-.53-.63-1.34-.99t-1.88-.36q-2.09 0-3.29 1.19t-1.53 3.38m12.29 2.9h-12.39q.12 1.54.55 2.66t1.13 1.86q.7.73 1.67 1.09.96.36 2.13.36t2.02-.28q.85-.27 1.48-.6.64-.33 1.12-.6.47-.28.92-.28.61 0 .9.45l1.38 1.76q-.8.93-1.79 1.57-.99.63-2.08 1.01-1.08.38-2.2.54-1.12.15-2.17.15-2.09 0-3.89-.69-1.79-.69-3.12-2.05-1.32-1.35-2.08-3.35t-.76-4.63q0-2.05.66-3.85.66-1.81 1.9-3.14 1.24-1.34 3.02-2.12 1.79-.78 4.03-.78 1.89 0 3.49.61 1.6.6 2.75 1.76t1.81 2.85q.65 1.68.65 3.85 0 1.09-.24 1.47-.23.38-.89.38m8.91-9.73.33 1.58q.6-.6 1.28-1.12.67-.52 1.42-.88t1.61-.56q.86-.21 1.87-.21 1.64 0 2.91.56 1.26.55 2.11 1.56.85 1 1.29 2.4.44 1.39.44 3.07v12.73h-4.82v-12.73q0-1.84-.84-2.84-.83-1-2.55-1-1.25 0-2.34.56-1.09.57-2.07 1.54v14.47h-4.81v-20.01h2.94q.94 0 1.23.88m24.49 19.44q-2.61 0-4.01-1.47-1.39-1.47-1.39-4.07v-11.17h-2.05q-.39 0-.66-.25-.27-.26-.27-.76v-1.91l3.21-.53 1.02-5.46q.09-.39.37-.61.27-.21.7-.21h2.5v6.3h5.34v3.43h-5.34v10.84q0 .94.45 1.47.46.52 1.26.52.45 0 .75-.11.3-.1.53-.22l.4-.22q.17-.11.35-.11.21 0 .35.11.14.1.29.32l1.45 2.34q-1.06.88-2.42 1.32-1.37.45-2.83.45m23.32-14.33h3.92q1.45 0 2.52-.36t1.78-1.03q.71-.68 1.06-1.64.36-.97.36-2.16 0-1.13-.36-2.04-.35-.92-1.05-1.57-.7-.64-1.77-.98-1.08-.34-2.54-.34h-3.92zm-5.24-14.18h9.16q2.83 0 4.9.67 2.06.66 3.41 1.85 1.34 1.19 2 2.85.65 1.65.65 3.62 0 2.05-.68 3.76-.68 1.7-2.05 2.93-1.36 1.23-3.42 1.91t-4.81.68h-3.92v9.93h-5.24zm32.23 7.88q2.22 0 4.05.72 1.82.72 3.12 2.05 1.29 1.33 2 3.24.7 1.91.7 4.27 0 2.38-.7 4.29-.71 1.91-2 3.25-1.3 1.35-3.12 2.07-1.83.72-4.05.72-2.24 0-4.07-.72-1.84-.72-3.13-2.07-1.3-1.34-2.01-3.25t-.71-4.29q0-2.36.71-4.27t2.01-3.24q1.29-1.33 3.13-2.05 1.83-.72 4.07-.72m0 16.91q2.5 0 3.7-1.68t1.2-4.91q0-3.24-1.2-4.94-1.2-1.69-3.7-1.69-2.53 0-3.75 1.7-1.22 1.71-1.22 4.93 0 3.21 1.22 4.9t3.75 1.69m38.45-16.6h3.67l-6.36 20.01h-3.86q-.66 0-.91-.86l-3.59-11.56q-.18-.59-.32-1.16-.15-.58-.25-1.16-.11.58-.26 1.18-.15.59-.32 1.18l-3.65 11.52q-.23.86-1.03.86h-3.71l-6.33-20.01h3.84q.52 0 .89.26.37.25.49.64l2.87 10.69q.21.87.38 1.71.16.84.28 1.68.22-.84.46-1.68t.52-1.71l3.31-10.73q.12-.39.46-.64.34-.26.83-.26h2.12q.51 0 .87.26.36.25.48.64l3.22 10.73q.25.87.47 1.72.23.85.44 1.69.26-1.66.72-3.41l2.95-10.69q.14-.39.49-.64.35-.26.83-.26m10.2 7.71h9.09q0-.94-.26-1.77-.27-.83-.79-1.45-.53-.63-1.34-.99t-1.88-.36q-2.09 0-3.29 1.19t-1.53 3.38m12.29 2.9H449.4q.11 1.54.54 2.66t1.13 1.86q.7.73 1.67 1.09t2.14.36 2.01-.28q.85-.27 1.49-.6.63-.33 1.11-.6.47-.28.92-.28.61 0 .9.45l1.38 1.76q-.79.93-1.79 1.57-.99.63-2.08 1.01-1.08.38-2.2.54-1.12.15-2.17.15-2.09 0-3.88-.69-1.8-.69-3.12-2.05-1.33-1.35-2.09-3.35t-.76-4.63q0-2.05.66-3.85.66-1.81 1.9-3.14 1.24-1.34 3.03-2.12 1.78-.78 4.02-.78 1.89 0 3.49.61 1.6.6 2.75 1.76t1.81 2.85q.65 1.68.65 3.85 0 1.09-.23 1.47-.24.38-.9.38m8.99-9.4.29 2.26q.94-1.79 2.22-2.81 1.29-1.03 3.05-1.03 1.38 0 2.22.61l-.31 3.6q-.1.36-.29.5-.18.15-.49.15-.3 0-.87-.1-.58-.1-1.12-.1-.8 0-1.43.24-.62.23-1.12.67-.49.44-.87 1.06-.39.63-.72 1.43v12.32h-4.81v-20.01h2.82q.75 0 1.04.27.29.26.39.94m9.59 16.15q0-.61.23-1.15.22-.55.61-.94t.94-.62q.54-.24 1.17-.24.62 0 1.16.24.53.23.93.62t.64.94q.23.54.23 1.15 0 .62-.23 1.16-.24.53-.64.92t-.93.62q-.54.22-1.16.22-.63 0-1.17-.22-.55-.23-.94-.62t-.61-.92q-.23-.54-.23-1.16m-330.87 38.8h8.97l-3.44-9.38q-.25-.62-.52-1.48-.28-.86-.55-1.85-.25.99-.53 1.86-.27.87-.52 1.51zm7.15-17.55 11.08 28.2h-4.06q-.68 0-1.11-.34t-.64-.85l-2.11-5.75h-11.68l-2.11 5.75q-.15.45-.6.82t-1.11.37h-4.1l11.1-28.2zm31.79 4.18h-12.52v7.82h9.87v4.03h-9.87v7.98h12.52v4.19h-17.79v-28.2h17.79zm31.53 9.92q0 3.1-1.03 5.74-1.02 2.65-2.89 4.58t-4.51 3.01q-2.63 1.08-5.85 1.08-3.19 0-5.83-1.08-2.63-1.08-4.51-3.01t-2.92-4.58q-1.03-2.64-1.03-5.74t1.03-5.74q1.04-2.64 2.92-4.57t4.51-3.02q2.64-1.08 5.83-1.08 2.15 0 4.04.5t3.47 1.4q1.58.91 2.84 2.21 1.26 1.29 2.13 2.89.88 1.6 1.34 3.47t.46 3.94m-5.36 0q0-2.32-.63-4.16-.62-1.84-1.77-3.13t-2.8-1.97-3.72-.68q-2.06 0-3.71.68t-2.81 1.97-1.78 3.13q-.63 1.84-.63 4.16t.63 4.16q.62 1.85 1.78 3.12 1.16 1.28 2.81 1.96 1.65.69 3.71.69 2.07 0 3.72-.69 1.65-.68 2.8-1.96 1.15-1.27 1.77-3.12.63-1.84.63-4.16m29.27 8.93v-3.37q-2.09.1-3.51.36-1.43.26-2.29.67-.85.41-1.22.96-.37.54-.37 1.19 0 1.26.75 1.81t1.96.55q1.48 0 2.56-.54t2.12-1.63m-10.18-10.51-.86-1.54q3.45-3.16 8.31-3.16 1.75 0 3.14.58 1.38.57 2.34 1.6.95 1.02 1.45 2.44.5 1.43.5 3.12v12.64h-2.19q-.68 0-1.05-.2-.37-.21-.59-.83l-.43-1.45q-.76.69-1.48 1.2-.72.52-1.5.87t-1.67.54q-.88.18-1.96.18-1.26 0-2.34-.34-1.07-.34-1.85-1.02-.78-.69-1.21-1.7t-.43-2.36q0-.76.26-1.51.25-.75.83-1.43.57-.69 1.49-1.29.91-.61 2.25-1.05 1.34-.45 3.11-.73 1.77-.29 4.06-.35v-1.17q0-2-.86-2.97t-2.48-.97q-1.17 0-1.94.28-.77.27-1.35.61-.59.34-1.07.62-.47.27-1.06.27-.51 0-.86-.26-.35-.27-.56-.62m23.57-3.45.33 1.58q.61-.6 1.28-1.12t1.42-.88q.76-.36 1.61-.56.86-.21 1.88-.21 1.63 0 2.9.56 1.27.55 2.12 1.56.84 1 1.28 2.4.44 1.39.44 3.07v12.73h-4.81v-12.73q0-1.84-.84-2.84-.84-1.01-2.56-1.01-1.25 0-2.34.57t-2.06 1.54v14.47h-4.82v-20.01h2.94q.94 0 1.23.88m30.38 13.2v-8.97q-.82-.99-1.78-1.4-.97-.41-2.08-.41-1.09 0-1.97.41-.87.41-1.5 1.24-.62.82-.95 2.1-.34 1.28-.34 3.01 0 1.76.29 2.98.28 1.22.81 1.99.52.77 1.28 1.11t1.7.34q1.5 0 2.55-.62 1.06-.63 1.99-1.78m0-23.05h4.82v28.98h-2.94q-.96 0-1.21-.88l-.41-1.93q-1.21 1.39-2.78 2.24-1.57.86-3.66.86-1.64 0-3-.68-1.37-.68-2.35-1.98-.99-1.3-1.52-3.21-.54-1.91-.54-4.37 0-2.22.61-4.13.6-1.91 1.73-3.31 1.13-1.41 2.71-2.2t3.55-.79q1.68 0 2.87.53t2.12 1.42zm33.7 14.84h9.36v11.41q-2.15 1.58-4.57 2.31-2.43.73-5.2.73-3.45 0-6.25-1.07t-4.78-2.98q-1.98-1.92-3.05-4.57t-1.07-5.79q0-3.18 1.03-5.83 1.04-2.65 2.94-4.56t4.61-2.97q2.71-1.05 6.08-1.05 1.72 0 3.21.27 1.49.28 2.77.75 1.28.48 2.33 1.16 1.05.69 1.93 1.51l-1.5 2.38q-.35.56-.92.69-.56.12-1.23-.29l-1.28-.74q-.65-.37-1.44-.64t-1.77-.45q-.99-.17-2.27-.17-2.09 0-3.78.7-1.68.7-2.87 2.01-1.19 1.3-1.84 3.14-.64 1.83-.64 4.09 0 2.42.69 4.32.7 1.9 1.95 3.22 1.26 1.31 3.04 2.01 1.77.69 3.95.69 1.56 0 2.79-.33t2.4-.9v-5.11h-3.55q-.51 0-.79-.28t-.28-.69zm32.21-9.88h-12.52v7.82h9.87v4.03h-9.87v7.98h12.52v4.19h-17.78v-28.2h17.78zm31.53 9.92q0 3.1-1.02 5.74-1.02 2.65-2.89 4.58-1.88 1.93-4.51 3.01t-5.85 1.08q-3.2 0-5.83-1.08t-4.51-3.01q-1.89-1.93-2.92-4.58-1.03-2.64-1.03-5.74t1.03-5.74 2.92-4.57q1.88-1.93 4.51-3.02 2.63-1.08 5.83-1.08 2.15 0 4.04.5t3.47 1.4q1.58.91 2.84 2.21 1.25 1.29 2.13 2.89t1.34 3.47q.45 1.87.45 3.94m-5.36 0q0-2.32-.62-4.16-.63-1.84-1.78-3.13t-2.79-1.97q-1.65-.68-3.72-.68t-3.71.68q-1.65.68-2.81 1.97t-1.79 3.13q-.62 1.84-.62 4.16t.62 4.16q.63 1.85 1.79 3.12 1.16 1.28 2.81 1.96 1.64.69 3.71.69t3.72-.69q1.64-.68 2.79-1.96 1.15-1.27 1.78-3.12.62-1.84.62-4.16m24.71.08h3.92q1.44 0 2.51-.36 1.08-.36 1.79-1.03.71-.68 1.06-1.64.35-.97.35-2.16 0-1.13-.35-2.05-.35-.91-1.05-1.56-.7-.64-1.78-.98-1.07-.34-2.53-.34h-3.92zm-5.25-14.18h9.17q2.83 0 4.89.67 2.07.66 3.42 1.85 1.34 1.19 1.99 2.85.66 1.65.66 3.62 0 2.05-.69 3.76-.68 1.7-2.04 2.93-1.37 1.23-3.43 1.91-2.05.68-4.8.68h-3.92v9.93h-5.25zm32.24 7.88q2.22 0 4.04.72 1.83.72 3.12 2.05 1.3 1.33 2 3.24t.7 4.27q0 2.38-.7 4.29t-2 3.25q-1.29 1.35-3.12 2.07-1.82.72-4.04.72-2.25 0-4.08-.72t-3.13-2.07q-1.3-1.34-2.01-3.25t-.71-4.29q0-2.36.71-4.27t2.01-3.24 3.13-2.05 4.08-.72m0 16.91q2.49 0 3.69-1.68t1.2-4.91q0-3.24-1.2-4.94-1.2-1.69-3.69-1.69-2.54 0-3.76 1.7-1.22 1.71-1.22 4.93 0 3.21 1.22 4.9t3.76 1.69m38.45-16.6h3.67l-6.36 20.01h-3.86q-.66 0-.92-.86l-3.59-11.56q-.17-.59-.32-1.16-.14-.58-.24-1.16-.12.58-.26 1.18-.15.59-.33 1.18l-3.64 11.52q-.24.86-1.04.86h-3.7l-6.34-20.01h3.84q.53 0 .9.26.37.25.49.64l2.86 10.69q.22.87.38 1.71.17.84.29 1.68.21-.84.45-1.68.25-.84.52-1.71l3.32-10.73q.11-.39.45-.64.35-.26.83-.26h2.13q.51 0 .87.26.36.25.47.64l3.22 10.73q.26.87.48 1.72t.44 1.69q.25-1.66.72-3.41l2.94-10.69q.14-.39.49-.64.35-.26.84-.26m10.2 7.71h9.09q0-.94-.27-1.77-.26-.83-.79-1.45-.52-.63-1.33-.99t-1.88-.36q-2.09 0-3.29 1.19t-1.53 3.38m12.28 2.9h-12.38q.12 1.54.55 2.66t1.13 1.86q.7.73 1.67 1.09.96.36 2.13.36t2.02-.28q.85-.27 1.48-.6.64-.33 1.11-.6.48-.28.93-.28.6 0 .9.45l1.38 1.76q-.8.93-1.79 1.57-1 .63-2.08 1.01t-2.2.54q-1.12.15-2.18.15-2.08 0-3.88-.69-1.79-.69-3.12-2.05-1.32-1.35-2.08-3.35-.77-2-.77-4.63 0-2.05.67-3.85.66-1.81 1.9-3.14 1.24-1.34 3.02-2.12 1.79-.78 4.03-.78 1.89 0 3.49.61 1.6.6 2.75 1.76t1.8 2.85q.66 1.68.66 3.85 0 1.09-.24 1.47-.23.38-.9.38m8.99-9.4.3 2.26q.93-1.79 2.22-2.81 1.29-1.03 3.04-1.03 1.39 0 2.22.61l-.31 3.6q-.1.36-.28.5-.19.15-.5.15-.29 0-.87-.1-.57-.1-1.12-.1-.8 0-1.42.24-.62.23-1.12.67t-.88 1.06q-.38.63-.71 1.43v12.32h-4.82v-20.01h2.83q.74 0 1.03.27.3.26.39.94m14.1 6.5h9.09q0-.94-.26-1.77-.27-.83-.79-1.45-.53-.63-1.34-.99t-1.88-.36q-2.09 0-3.29 1.19t-1.53 3.38m12.29 2.9h-12.39q.12 1.54.55 2.66t1.13 1.86q.7.73 1.67 1.09.96.36 2.13.36t2.02-.28q.85-.27 1.48-.6.64-.33 1.12-.6.47-.28.92-.28.61 0 .9.45l1.38 1.76q-.8.93-1.79 1.57-.99.63-2.08 1.01-1.08.38-2.2.54-1.12.15-2.17.15-2.09 0-3.89-.69-1.79-.69-3.12-2.05-1.32-1.35-2.08-3.35t-.76-4.63q0-2.05.66-3.85.66-1.81 1.9-3.14 1.24-1.34 3.02-2.12 1.79-.78 4.03-.78 1.89 0 3.49.61 1.6.6 2.75 1.76t1.8 2.85q.66 1.68.66 3.85 0 1.09-.24 1.47-.23.38-.89.38m17.29 3.47v-8.97q-.82-.99-1.78-1.4-.97-.41-2.08-.41-1.09 0-1.97.41-.87.41-1.5 1.24-.62.82-.95 2.1-.34 1.28-.34 3.01 0 1.76.29 2.98.28 1.22.81 1.99.52.77 1.28 1.11t1.7.34q1.5 0 2.55-.62 1.06-.63 1.99-1.78m0-23.05h4.82v28.98h-2.94q-.96 0-1.21-.88l-.41-1.93q-1.21 1.39-2.78 2.24-1.57.86-3.66.86-1.64 0-3-.68-1.37-.68-2.35-1.98-.99-1.3-1.52-3.21-.54-1.91-.54-4.37 0-2.22.61-4.13.6-1.91 1.73-3.31 1.13-1.41 2.71-2.2t3.55-.79q1.68 0 2.87.53t2.12 1.42zm8.88 26.33q0-.61.22-1.15.22-.55.61-.94t.94-.62q.55-.24 1.17-.24t1.16.24q.54.23.94.62t.63.94q.23.54.23 1.15 0 .62-.23 1.16-.23.53-.63.92t-.94.62q-.54.22-1.16.22t-1.17-.22q-.55-.23-.94-.62t-.61-.92q-.22-.54-.22-1.16m-308.07 21.25h4.11l-8.76 28.2h-4.73l-6.17-19.27q-.25-.7-.46-1.71-.12.49-.24.91-.11.43-.25.8l-6.22 19.27h-4.76l-8.74-28.2H214q.68 0 1.14.32.46.33.62.87l4.79 16.87q.16.62.31 1.36.14.73.3 1.53.15-.82.34-1.54.18-.73.4-1.35l5.54-16.87q.15-.45.61-.82t1.12-.37h1.54q.69 0 1.11.33.43.34.65.86l5.52 16.87q.41 1.21.74 2.79.25-1.54.56-2.79l4.8-16.87q.12-.49.59-.84.48-.35 1.15-.35m6.98 8.19h4.83v20.01h-4.83zm5.5-5.83q0 .63-.26 1.17-.25.55-.67.96t-.99.65q-.56.24-1.2.24-.63 0-1.18-.24-.56-.24-.97-.65t-.65-.96q-.25-.54-.25-1.17 0-.64.25-1.21.24-.56.65-.97t.97-.65q.55-.25 1.18-.25.64 0 1.2.25.57.24.99.65t.67.97q.26.57.26 1.21m8.42 6.71.33 1.58q.61-.6 1.28-1.12t1.42-.88 1.61-.56q.86-.21 1.87-.21 1.64 0 2.91.56 1.27.55 2.11 1.56.85 1 1.29 2.4.44 1.39.44 3.07v12.73h-4.82v-12.73q0-1.84-.84-2.84-.83-1.01-2.55-1.01-1.25 0-2.34.57t-2.07 1.54v14.47h-4.81v-20.01h2.94q.94 0 1.23.88m22 0 .33 1.58q.6-.6 1.27-1.12.68-.52 1.43-.88t1.61-.56q.85-.21 1.87-.21 1.64 0 2.9.56 1.27.55 2.12 1.56.85 1 1.29 2.4.44 1.39.44 3.07v12.73h-4.82v-12.73q0-1.84-.84-2.84-.84-1.01-2.55-1.01-1.25 0-2.34.57-1.1.57-2.07 1.54v14.47h-4.82v-20.01h2.95q.93 0 1.23.88m17.97-.88h4.84v20.01h-4.84zm5.5-5.83q0 .63-.25 1.17-.25.55-.67.96t-.99.65q-.56.24-1.21.24-.62 0-1.18-.24-.55-.24-.96-.65t-.65-.96q-.25-.54-.25-1.17 0-.64.25-1.21.24-.56.65-.97t.96-.65q.56-.25 1.18-.25.65 0 1.21.25.57.24.99.65t.67.97q.25.57.25 1.21m8.43 6.71.33 1.58q.6-.6 1.28-1.12.67-.52 1.42-.88t1.61-.56q.86-.21 1.87-.21 1.64 0 2.91.56 1.26.55 2.11 1.56.85 1 1.29 2.4.44 1.39.44 3.07v12.73h-4.82v-12.73q0-1.84-.84-2.84-.84-1.01-2.55-1.01-1.25 0-2.34.57t-2.07 1.54v14.47h-4.82v-20.01h2.95q.94 0 1.23.88m25.13 8.64q.9 0 1.56-.24.67-.25 1.1-.68.44-.43.67-1.03.22-.61.22-1.33 0-1.48-.89-2.35-.88-.86-2.66-.86-1.77 0-2.66.86-.89.87-.89 2.35 0 .7.23 1.31.22.6.66 1.04t1.11.69q.68.24 1.55.24m5.44 11.39q0-.59-.35-.96t-.95-.57q-.61-.21-1.42-.31-.81-.09-1.71-.14-.91-.05-1.87-.09-.97-.04-1.89-.16-.8.45-1.29 1.06-.5.6-.5 1.4 0 .53.26.99.27.45.84.79.58.33 1.49.51.92.19 2.25.19 1.34 0 2.32-.21.97-.2 1.6-.56.64-.36.93-.86t.29-1.08m-.95-20.22H356v1.79q0 .86-1.03 1.05l-1.8.33q.41 1.04.41 2.27 0 1.48-.59 2.68-.6 1.2-1.65 2.04-1.05.83-2.49 1.29-1.43.46-3.09.46-.58 0-1.13-.06-.54-.06-1.07-.15-.94.56-.94 1.26 0 .61.56.89t1.47.4q.92.12 2.09.15t2.4.12q1.23.1 2.4.34 1.17.25 2.08.77.92.53 1.47 1.44.56.9.56 2.33 0 1.32-.65 2.57-.66 1.25-1.9 2.22-1.23.98-3.04 1.57-1.8.6-4.1.6-2.26 0-3.94-.44t-2.79-1.17-1.66-1.69q-.54-.95-.54-1.99 0-1.4.85-2.34.84-.95 2.33-1.52-.8-.41-1.27-1.09t-.47-1.79q0-.45.17-.93.16-.48.48-.94.33-.47.81-.89.49-.42 1.15-.75-1.52-.82-2.39-2.19-.86-1.36-.86-3.19 0-1.49.59-2.69.6-1.19 1.66-2.04t2.51-1.3q1.46-.45 3.17-.45 1.29 0 2.42.27 1.13.26 2.07.77m52.43-8.88h4.12l-8.76 28.2h-4.74l-6.16-19.27q-.25-.7-.47-1.71-.11.49-.23.91-.12.43-.25.8l-6.22 19.27h-4.76l-8.74-28.2h4.39q.68 0 1.14.32.46.33.61.87l4.8 16.87q.16.62.3 1.36.15.73.31 1.53.15-.82.34-1.54.18-.73.4-1.35l5.54-16.87q.15-.45.61-.82t1.12-.37h1.54q.68 0 1.11.33.43.34.65.86l5.51 16.87q.41 1.21.75 2.79.25-1.54.56-2.79l4.8-16.87q.12-.49.59-.84.48-.35 1.14-.35m15.68 7.88q2.22 0 4.05.72 1.82.72 3.12 2.05 1.29 1.33 2 3.24.7 1.91.7 4.27 0 2.38-.7 4.29-.71 1.91-2 3.25-1.3 1.35-3.12 2.07-1.83.72-4.05.72-2.24 0-4.07-.72-1.84-.72-3.13-2.07-1.3-1.34-2.01-3.25t-.71-4.29q0-2.36.71-4.27t2.01-3.24q1.29-1.33 3.13-2.05 1.83-.72 4.07-.72m0 16.91q2.5 0 3.7-1.68t1.2-4.91q0-3.24-1.2-4.94-1.2-1.69-3.7-1.69-2.53 0-3.75 1.7-1.22 1.71-1.22 4.93 0 3.21 1.22 4.9t3.75 1.69m17.81-15.39.29 2.26q.93-1.79 2.22-2.81 1.29-1.03 3.04-1.03 1.39 0 2.23.61l-.32 3.6q-.09.36-.28.5-.18.15-.5.15-.29 0-.86-.1-.58-.1-1.13-.1-.79 0-1.42.24-.62.23-1.12.67t-.88 1.06q-.38.63-.71 1.43v12.32h-4.82v-20.01h2.83q.74 0 1.04.27.29.26.39.94m22.85 12.87v-8.97q-.82-.99-1.79-1.4-.96-.41-2.07-.41-1.09 0-1.97.41t-1.5 1.24q-.63.82-.96 2.1t-.33 3.02q0 1.75.28 2.97.29 1.22.81 1.99.53.77 1.29 1.11t1.7.34q1.5 0 2.55-.62 1.05-.63 1.99-1.78m0-23.05h4.82v28.98h-2.95q-.95 0-1.21-.88l-.41-1.93q-1.21 1.39-2.78 2.24-1.57.86-3.65.86-1.64 0-3.01-.68-1.36-.68-2.35-1.98-.98-1.3-1.52-3.21-.53-1.91-.53-4.36 0-2.23.6-4.14.61-1.91 1.74-3.31 1.13-1.41 2.71-2.2t3.55-.79q1.67 0 2.86.53t2.13 1.42zm22.87 11.14-1.09 1.73q-.19.31-.41.44-.21.13-.54.13-.36 0-.76-.2-.4-.19-.92-.44-.53-.24-1.2-.43-.67-.2-1.59-.2-1.42 0-2.23.61-.81.6-.81 1.57 0 .65.42 1.09t1.11.77 1.57.59q.88.27 1.78.58.91.31 1.79.71.87.4 1.57 1.01.69.62 1.11 1.48.42.85.42 2.06 0 1.45-.52 2.66-.52 1.22-1.53 2.11t-2.51 1.38q-1.49.5-3.44.5-1.03 0-2.02-.18-.98-.19-1.89-.52-.9-.33-1.67-.78t-1.36-.98l1.11-1.83q.22-.33.51-.51.29-.17.74-.17t.85.25q.4.26.92.55.53.29 1.24.54.71.26 1.81.26.85 0 1.47-.21.61-.2 1.01-.53t.59-.77q.18-.44.18-.91 0-.7-.42-1.15t-1.11-.78-1.58-.59q-.88-.27-1.81-.58t-1.81-.73q-.89-.42-1.58-1.06-.7-.65-1.12-1.58-.41-.94-.41-2.27 0-1.22.48-2.34.49-1.11 1.44-1.94.94-.82 2.36-1.32 1.41-.5 3.26-.5 2.07 0 3.77.68 1.69.69 2.82 1.8m3.14 15.19q0-.61.23-1.15.22-.55.61-.94t.94-.62q.54-.24 1.17-.24.62 0 1.16.24.53.23.93.62t.64.94q.23.54.23 1.15 0 .62-.23 1.16-.24.53-.64.92t-.93.62q-.54.22-1.16.22-.63 0-1.17-.22-.55-.23-.94-.62t-.61-.92q-.23-.54-.23-1.16"/></svg>