<svg xmlns="http://www.w3.org/2000/svg" width="700" height="400" viewBox="0 0 700 400"><rect width="100%" height="100%" fill="#a3456a"/><path fill="#ffffff" d="M247.71 146.95q.54 0 .96.41l2.59 2.82q-2.15 2.67-5.3 4.09t-7.56 1.42q-3.94 0-7.09-1.35-3.15-1.34-5.38-3.74-2.23-2.41-3.42-5.74-1.18-3.33-1.18-7.27 0-4 1.27-7.32t3.59-5.72q2.31-2.4 5.52-3.73 3.21-1.34 7.11-1.34 3.87 0 6.87 1.27 3 1.28 5.11 3.34l-2.21 3.06q-.19.29-.5.51-.3.22-.84.22-.37 0-.76-.2-.39-.21-.86-.52-.47-.3-1.08-.67t-1.42-.68q-.81-.3-1.87-.51-1.07-.21-2.47-.21-2.37 0-4.34.85-1.98.84-3.4 2.45-1.42 1.6-2.2 3.92-.79 2.31-.79 5.28 0 2.99.85 5.31.84 2.33 2.29 3.92 1.44 1.6 3.4 2.44 1.96.85 4.22.85 1.35 0 2.44-.15t2.01-.47q.91-.32 1.74-.82.82-.5 1.62-1.23.25-.23.52-.36t.56-.13m7.21-28.06h6.05v36.41h-6.05zm16.88 20.95h11.41q0-1.18-.33-2.22t-.99-1.82q-.66-.79-1.68-1.24t-2.36-.45q-2.62 0-4.13 1.49-1.51 1.5-1.92 4.24m15.43 3.65h-15.56q.15 1.94.69 3.35.54 1.4 1.42 2.32t2.1 1.37q1.21.46 2.68.46t2.53-.35q1.07-.34 1.87-.75.79-.42 1.39-.76.6-.35 1.17-.35.76 0 1.12.57l1.74 2.2q-1 1.18-2.25 1.97-1.25.8-2.61 1.28t-2.77.67q-1.41.2-2.73.2-2.62 0-4.88-.87-2.25-.87-3.92-2.57-1.66-1.71-2.62-4.22-.95-2.51-.95-5.82 0-2.57.83-4.84.83-2.26 2.39-3.94 1.55-1.68 3.8-2.66 2.24-.98 5.05-.98 2.38 0 4.39.76t3.45 2.22q1.45 1.46 2.27 3.57.82 2.12.82 4.84 0 1.38-.29 1.85-.3.48-1.13.48m19.23 5.32v-4.24q-2.62.12-4.41.45t-2.86.85q-1.08.51-1.55 1.2-.46.68-.46 1.49 0 1.59.94 2.28t2.46.69q1.87 0 3.23-.68 1.35-.67 2.65-2.04m-12.79-13.21-1.07-1.93q4.33-3.97 10.43-3.97 2.21 0 3.95.72t2.94 2.01 1.82 3.07q.63 1.79.63 3.92v15.88h-2.75q-.85 0-1.32-.26-.46-.25-.73-1.04l-.54-1.81q-.96.86-1.87 1.51-.9.64-1.88 1.09-.98.44-2.1.67-1.11.23-2.46.23-1.59 0-2.94-.43t-2.33-1.28q-.98-.86-1.52-2.13-.53-1.28-.53-2.97 0-.95.31-1.9.32-.94 1.05-1.8.72-.86 1.87-1.62t2.83-1.32 3.91-.92q2.23-.35 5.09-.43v-1.47q0-2.52-1.07-3.73-1.08-1.21-3.12-1.21-1.47 0-2.43.34-.97.34-1.71.77-.73.43-1.33.77t-1.34.34q-.63 0-1.08-.33-.44-.33-.71-.77m29.62-4.33.42 1.98q.76-.76 1.61-1.41.84-.65 1.78-1.1.95-.45 2.03-.71 1.07-.26 2.35-.26 2.06 0 3.65.7t2.66 1.96q1.06 1.26 1.61 3.01t.55 3.86v16h-6.05v-16q0-2.3-1.05-3.56t-3.21-1.26q-1.57 0-2.94.71t-2.6 1.93v18.18h-6.05v-25.14h3.7q1.18 0 1.54 1.11m59.59 15.68q.54 0 .95.41l2.6 2.82q-2.15 2.67-5.3 4.09t-7.56 1.42q-3.95 0-7.09-1.35-3.15-1.34-5.38-3.74-2.23-2.41-3.42-5.74t-1.19-7.27q0-4 1.28-7.32 1.27-3.32 3.59-5.72 2.31-2.4 5.52-3.73 3.21-1.34 7.11-1.34 3.87 0 6.87 1.27 3 1.28 5.11 3.34l-2.21 3.06q-.2.29-.5.51-.31.22-.85.22-.36 0-.76-.2-.39-.21-.85-.52-.47-.3-1.08-.67t-1.42-.68q-.81-.3-1.88-.51-1.06-.21-2.46-.21-2.38 0-4.35.85-1.97.84-3.39 2.45-1.42 1.6-2.21 3.92-.78 2.31-.78 5.28 0 2.99.85 5.31.84 2.33 2.29 3.92 1.44 1.6 3.4 2.44 1.96.85 4.22.85 1.34 0 2.43-.15t2.01-.47 1.74-.82 1.63-1.23q.25-.23.52-.36.26-.13.56-.13m18.25-17.18q2.79 0 5.09.91 2.29.9 3.92 2.57 1.62 1.67 2.51 4.07.88 2.4.88 5.36 0 2.99-.88 5.39-.89 2.4-2.51 4.09-1.63 1.69-3.92 2.6-2.3.91-5.09.91-2.82 0-5.12-.91t-3.93-2.6-2.52-4.09q-.9-2.4-.9-5.39 0-2.96.9-5.36.89-2.4 2.52-4.07t3.93-2.57q2.3-.91 5.12-.91m0 21.24q3.14 0 4.64-2.1 1.51-2.11 1.51-6.18t-1.51-6.2q-1.5-2.13-4.64-2.13-3.18 0-4.72 2.15-1.53 2.14-1.53 6.18t1.53 6.16q1.54 2.12 4.72 2.12m32.81-3.16v-11.27q-1.03-1.25-2.24-1.76-1.22-.52-2.61-.52-1.38 0-2.48.52-1.1.51-1.89 1.55-.78 1.04-1.2 2.65-.41 1.6-.41 3.78 0 2.21.35 3.74.36 1.53 1.02 2.5t1.62 1.4q.95.43 2.13.43 1.88 0 3.21-.79 1.32-.78 2.5-2.23m0-28.96h6.05v36.41h-3.7q-1.2 0-1.52-1.1l-.51-2.43q-1.52 1.74-3.5 2.82-1.97 1.08-4.59 1.08-2.06 0-3.77-.86-1.72-.86-2.95-2.49-1.24-1.63-1.92-4.03-.67-2.4-.67-5.49 0-2.79.76-5.19t2.18-4.16q1.42-1.77 3.41-2.76 1.98-.99 4.45-.99 2.11 0 3.61.66 1.49.66 2.67 1.79zm16.8 20.95h11.42q0-1.18-.33-2.22t-.99-1.82q-.66-.79-1.68-1.24t-2.36-.45q-2.63 0-4.13 1.49-1.51 1.5-1.93 4.24m15.44 3.65h-15.56q.15 1.94.69 3.35.54 1.4 1.42 2.32t2.09 1.37q1.22.46 2.69.46t2.53-.35q1.07-.34 1.86-.75.8-.42 1.4-.76.6-.35 1.16-.35.76 0 1.13.57l1.74 2.2q-1 1.18-2.25 1.97-1.25.8-2.61 1.28t-2.77.67q-1.41.2-2.73.2-2.62 0-4.88-.87-2.25-.87-3.92-2.57-1.66-1.71-2.62-4.22t-.96-5.82q0-2.57.84-4.84.83-2.26 2.39-3.94 1.55-1.68 3.79-2.66 2.25-.98 5.06-.98 2.38 0 4.39.76t3.45 2.22q1.45 1.46 2.27 3.57.82 2.12.82 4.84 0 1.38-.29 1.85-.3.48-1.13.48m5.07 8.48q0-.76.28-1.45.28-.68.77-1.17t1.18-.79q.69-.29 1.47-.29t1.46.29q.67.3 1.17.79.51.49.8 1.17.29.69.29 1.45 0 .78-.29 1.46-.29.67-.8 1.16-.5.49-1.17.77-.68.28-1.46.28t-1.47-.28-1.18-.77-.77-1.16q-.28-.68-.28-1.46M168.2 205.75q.54 0 .95.41l2.6 2.82q-2.16 2.67-5.3 4.09-3.15 1.42-7.56 1.42-3.95 0-7.1-1.35-3.14-1.34-5.37-3.74t-3.42-5.74q-1.19-3.33-1.19-7.27 0-4 1.27-7.32 1.28-3.32 3.59-5.72 2.32-2.4 5.53-3.73 3.21-1.34 7.1-1.34 3.87 0 6.88 1.28 3 1.27 5.1 3.33l-2.2 3.06q-.2.29-.5.51-.31.22-.85.22-.37 0-.76-.2-.39-.21-.86-.52-.46-.3-1.07-.67-.62-.37-1.42-.68-.81-.3-1.88-.51-1.06-.21-2.46-.21-2.38 0-4.35.85-1.97.84-3.39 2.45-1.42 1.6-2.21 3.92-.78 2.31-.78 5.28 0 2.99.84 5.31.85 2.33 2.29 3.92 1.45 1.6 3.41 2.44 1.96.85 4.21.85 1.35 0 2.44-.15t2.01-.47q.92-.31 1.74-.82.82-.5 1.63-1.23.24-.22.51-.36.27-.13.57-.13m18.25-17.18q2.79 0 5.08.91 2.29.9 3.92 2.57t2.51 4.07q.89 2.4.89 5.36 0 2.99-.89 5.39-.88 2.4-2.51 4.09t-3.92 2.6-5.08.91q-2.82 0-5.12-.91t-3.93-2.6-2.53-4.09q-.89-2.4-.89-5.39 0-2.96.89-5.36.9-2.4 2.53-4.07t3.93-2.57q2.3-.91 5.12-.91m0 21.24q3.14 0 4.64-2.1 1.51-2.11 1.51-6.18t-1.51-6.2q-1.5-2.13-4.64-2.13-3.19 0-4.72 2.15-1.53 2.14-1.53 6.18t1.53 6.16 4.72 2.12m23.08 4.29h-6.05v-25.14h3.7q1.17 0 1.54 1.11l.39 1.86q.66-.74 1.39-1.35.72-.61 1.54-1.05t1.76-.7q.95-.26 2.07-.26 2.38 0 3.91 1.29 1.53 1.28 2.29 3.42.59-1.25 1.47-2.15.88-.89 1.94-1.46 1.05-.56 2.24-.83t2.39-.27q2.08 0 3.7.64t2.72 1.86q1.1 1.23 1.68 2.99.57 1.76.57 4.04v16h-6.05v-16q0-2.4-1.05-3.61-1.06-1.21-3.09-1.21-.93 0-1.73.31-.79.32-1.39.92t-.95 1.51q-.34.91-.34 2.08v16h-6.08v-16q0-2.52-1.01-3.67-1.02-1.15-2.98-1.15-1.32 0-2.46.64-1.14.65-2.12 1.78zm41.04-17.79v11.27q1.03 1.25 2.24 1.77 1.21.51 2.63.51 1.37 0 2.48-.51 1.1-.52 1.87-1.57t1.19-2.66q.42-1.6.42-3.78 0-2.21-.36-3.74t-1.02-2.49q-.66-.95-1.6-1.39t-2.15-.44q-1.88 0-3.2.79-1.33.8-2.5 2.24m-.81-6.24.49 2.32q1.54-1.74 3.5-2.81 1.96-1.08 4.61-1.08 2.06 0 3.76.86 1.7.85 2.94 2.48t1.91 4.02.67 5.48q0 2.81-.76 5.21-.76 2.41-2.16 4.17-1.41 1.76-3.41 2.76-2 .99-4.47.99-2.11 0-3.6-.65-1.5-.65-2.67-1.8v10.29h-6.06v-33.35h3.7q1.18 0 1.55 1.11m27.36 8.57h11.42q0-1.18-.33-2.22t-.99-1.82q-.66-.79-1.68-1.24t-2.36-.45q-2.63 0-4.13 1.49-1.51 1.5-1.93 4.24m15.44 3.65H277q.15 1.94.69 3.35.54 1.4 1.42 2.32t2.09 1.37q1.22.46 2.69.46t2.53-.34q1.07-.35 1.86-.76.8-.42 1.4-.76.6-.35 1.16-.35.76 0 1.13.57l1.74 2.2q-1 1.18-2.25 1.97-1.25.8-2.61 1.28t-2.77.67q-1.41.2-2.73.2-2.62 0-4.88-.87-2.25-.87-3.92-2.57-1.66-1.71-2.62-4.22t-.96-5.82q0-2.57.84-4.84.83-2.26 2.39-3.94 1.55-1.68 3.79-2.66 2.25-.98 5.06-.98 2.38 0 4.39.76t3.45 2.22q1.45 1.46 2.27 3.57.82 2.12.82 4.84 0 1.38-.29 1.85-.3.48-1.13.48m6.03-24.6h6.05v36.41h-6.05zm12.17 0h6.05v36.41h-6.05zm12.3 11.27h6.08v25.14h-6.08zm6.91-7.32q0 .78-.32 1.47-.32.68-.84 1.2-.53.51-1.24.82t-1.52.31q-.78 0-1.48-.31t-1.21-.82q-.52-.52-.82-1.2-.31-.69-.31-1.47 0-.81.31-1.52.3-.71.82-1.23.51-.51 1.21-.82.7-.3 1.48-.3.81 0 1.52.3.71.31 1.24.82.52.52.84 1.23t.32 1.52m10.58 8.43.42 1.98q.76-.76 1.61-1.41.84-.65 1.78-1.1.95-.45 2.03-.71 1.07-.26 2.35-.26 2.06 0 3.65.7t2.66 1.96q1.06 1.26 1.61 3.01t.55 3.86v16h-6.05v-16q0-2.3-1.05-3.56t-3.21-1.26q-1.57 0-2.94.71t-2.6 1.93v18.18h-6.05v-25.14h3.7q1.18 0 1.54 1.11m31.59 10.85q1.12 0 1.96-.31.83-.3 1.38-.84t.83-1.3.28-1.67q0-1.86-1.11-2.95-1.12-1.09-3.34-1.09-2.23 0-3.35 1.09-1.11 1.09-1.11 2.95 0 .89.28 1.64.28.76.83 1.32.55.55 1.4.85.84.31 1.95.31m6.83 14.31q0-.74-.44-1.2-.44-.47-1.2-.73-.76-.25-1.78-.38-1.01-.12-2.15-.18t-2.35-.11q-1.22-.05-2.37-.2-1 .57-1.63 1.33-.62.76-.62 1.76 0 .66.33 1.24.33.57 1.05.99t1.88.65q1.15.23 2.81.23 1.69 0 2.92-.25 1.22-.26 2.02-.72.8-.45 1.16-1.07.37-.63.37-1.36m-1.2-25.41H385v2.25q0 1.08-1.3 1.33l-2.25.41q.51 1.3.51 2.85 0 1.86-.75 3.36-.74 1.51-2.07 2.57-1.32 1.05-3.12 1.62-1.8.58-3.88.58-.74 0-1.43-.07-.68-.08-1.34-.2-1.18.71-1.18 1.59 0 .76.7 1.12.7.35 1.85.5t2.62.18q1.47.04 3.01.16 1.55.13 3.02.43 1.47.31 2.62.97t1.85 1.8.7 2.93q0 1.66-.82 3.23t-2.38 2.8q-1.56 1.22-3.82 1.97-2.27.74-5.16.74-2.84 0-4.95-.55t-3.5-1.47q-1.4-.92-2.08-2.12-.69-1.2-.69-2.49 0-1.77 1.07-2.96 1.06-1.19 2.92-1.9-1-.51-1.59-1.37t-.59-2.25q0-.57.21-1.17t.61-1.18q.41-.59 1.02-1.12t1.45-.94q-1.92-1.03-3.01-2.75-1.09-1.71-1.09-4.01 0-1.87.75-3.37.75-1.51 2.08-2.58 1.34-1.06 3.16-1.62 1.83-.57 3.99-.57 1.61 0 3.03.33t2.6.97m55.37 6.57q0 3.89-1.3 7.15t-3.65 5.61-5.66 3.65-7.35 1.3h-13.5v-35.43h13.5q4.04 0 7.35 1.31t5.66 3.65 3.65 5.6 1.3 7.16m-6.76 0q0-2.92-.77-5.23-.78-2.32-2.23-3.92-1.46-1.61-3.53-2.47-2.07-.85-4.67-.85h-6.88v24.94h6.88q2.6 0 4.67-.86t3.53-2.46q1.45-1.61 2.23-3.92.77-2.32.77-5.23m16.39 2.25h11.42q0-1.18-.33-2.22-.34-1.04-1-1.82-.66-.79-1.68-1.24-1.01-.45-2.36-.45-2.62 0-4.13 1.49-1.5 1.5-1.92 4.24m15.43 3.65h-15.55q.14 1.94.68 3.35.54 1.4 1.42 2.32.89.92 2.1 1.37 1.21.46 2.68.46t2.54-.34q1.06-.35 1.86-.76.79-.42 1.4-.76.6-.35 1.16-.35.76 0 1.13.57l1.74 2.2q-1.01 1.18-2.26 1.97-1.25.8-2.61 1.28t-2.77.67q-1.41.2-2.73.2-2.62 0-4.87-.87-2.26-.87-3.92-2.57-1.67-1.71-2.63-4.22-.95-2.51-.95-5.82 0-2.57.83-4.84.84-2.26 2.39-3.94 1.56-1.68 3.8-2.66t5.06-.98q2.37 0 4.38.76t3.46 2.22q1.44 1.46 2.26 3.57.82 2.12.82 4.84 0 1.38-.29 1.85-.29.48-1.13.48m22.67-10.61-1.38 2.18q-.24.39-.51.55t-.69.16q-.44 0-.94-.24-.5-.25-1.16-.55-.66-.31-1.51-.55-.85-.25-2-.25-1.79 0-2.8.76-1.02.76-1.02 1.99 0 .8.53 1.35.52.56 1.39.97.87.42 1.98.75 1.1.33 2.24.72t2.24.9q1.1.5 1.97 1.27t1.4 1.85.53 2.6q0 1.81-.65 3.34t-1.93 2.65q-1.27 1.11-3.14 1.74-1.88.62-4.33.62-1.3 0-2.53-.23-1.24-.23-2.38-.65t-2.11-.98-1.7-1.22l1.4-2.31q.26-.41.63-.63.37-.23.93-.23.57 0 1.07.32t1.16.69 1.56.69q.89.31 2.26.31 1.08 0 1.85-.25.78-.26 1.28-.68.5-.41.73-.97.24-.55.24-1.13 0-.89-.53-1.45t-1.4-.98-1.98-.75q-1.12-.33-2.28-.72t-2.28-.92q-1.11-.53-1.98-1.33-.87-.81-1.4-1.99-.53-1.17-.53-2.84 0-1.54.62-2.94.61-1.4 1.8-2.44t2.96-1.66q1.78-.63 4.11-.63 2.59 0 4.72.86 2.14.86 3.56 2.25m5.02-2.72h6.07v25.14h-6.07zm6.91-7.32q0 .78-.32 1.47-.32.68-.85 1.2-.52.51-1.23.82t-1.52.31q-.79 0-1.48-.31-.7-.31-1.22-.82-.51-.52-.82-1.2-.3-.69-.3-1.47 0-.81.3-1.52.31-.71.82-1.23.52-.51 1.22-.82.69-.3 1.48-.3.81 0 1.52.3.71.31 1.23.82.53.52.85 1.23t.32 1.52m14.53 19.28q1.12 0 1.96-.31.83-.3 1.38-.84t.83-1.3q.29-.76.29-1.67 0-1.86-1.12-2.95-1.11-1.09-3.34-1.09t-3.35 1.09q-1.11 1.09-1.11 2.95 0 .89.28 1.64.28.76.83 1.32.55.55 1.4.85.84.31 1.95.31m6.83 14.31q0-.74-.44-1.2-.44-.47-1.2-.73-.76-.25-1.78-.38-1.01-.12-2.15-.18t-2.35-.11q-1.22-.05-2.37-.2-1 .57-1.63 1.33-.62.76-.62 1.76 0 .66.33 1.24.33.57 1.05.99t1.88.65q1.15.23 2.81.23 1.69 0 2.92-.25 1.22-.26 2.02-.72.8-.45 1.16-1.07.37-.63.37-1.36m-1.2-25.41h7.23v2.25q0 1.08-1.3 1.33l-2.25.41q.51 1.3.51 2.85 0 1.86-.75 3.36-.74 1.51-2.07 2.57-1.32 1.05-3.12 1.62-1.8.58-3.88.58-.74 0-1.42-.07-.69-.08-1.35-.2-1.18.71-1.18 1.59 0 .76.7 1.12.7.35 1.85.5t2.62.18q1.47.04 3.01.16 1.55.13 3.02.43 1.47.31 2.62.97t1.85 1.8.7 2.93q0 1.66-.82 3.23t-2.38 2.8q-1.56 1.22-3.82 1.97-2.27.74-5.16.74-2.84 0-4.95-.55-2.1-.55-3.5-1.47t-2.08-2.12q-.69-1.2-.69-2.49 0-1.77 1.07-2.96 1.06-1.19 2.92-1.9-1-.51-1.59-1.37t-.59-2.25q0-.57.21-1.17t.61-1.18q.41-.59 1.02-1.12t1.45-.94q-1.91-1.03-3-2.75-1.1-1.71-1.1-4.01 0-1.87.75-3.37.75-1.51 2.08-2.58 1.34-1.06 3.17-1.62 1.82-.57 3.98-.57 1.61 0 3.03.33 1.43.33 2.6.97m16.29.25.42 1.98q.76-.76 1.61-1.41.84-.65 1.78-1.1.95-.45 2.02-.71 1.08-.26 2.36-.26 2.05 0 3.65.7 1.59.7 2.66 1.96 1.06 1.26 1.61 3.01t.55 3.86v16h-6.05v-16q0-2.3-1.05-3.56t-3.21-1.26q-1.57 0-2.94.71t-2.6 1.93v18.18h-6.05v-25.14h3.7q1.18 0 1.54 1.11m21.51 20.7q0-.76.29-1.45.28-.68.77-1.17t1.17-.79q.69-.29 1.47-.29.79 0 1.46.29.68.3 1.18.79t.79 1.17q.3.69.3 1.45 0 .78-.3 1.46-.29.67-.79 1.16t-1.18.77q-.67.28-1.46.28-.78 0-1.47-.28-.68-.28-1.17-.77t-.77-1.16q-.29-.68-.29-1.46m-373.73 26.7v2.43q0 1.13-.64 2.06l-18.18 25.67h18.4v5.27h-26.95v-2.6q0-.49.17-.94.18-.45.45-.85l18.22-25.79h-17.69v-5.25zm9.09 19.97h11.42q0-1.18-.33-2.22-.34-1.04-1-1.82-.66-.79-1.68-1.24-1.01-.45-2.36-.45-2.62 0-4.13 1.49-1.5 1.5-1.92 4.24m15.43 3.65H186q.14 1.94.68 3.35.54 1.4 1.42 2.32.89.92 2.1 1.37 1.21.46 2.68.46t2.54-.34q1.06-.35 1.86-.76.8-.42 1.4-.76.6-.35 1.16-.35.76 0 1.13.57l1.74 2.2q-1.01 1.18-2.26 1.97-1.25.8-2.61 1.28t-2.77.67q-1.4.2-2.73.2-2.62 0-4.87-.87-2.26-.87-3.92-2.57-1.67-1.71-2.62-4.22-.96-2.51-.96-5.82 0-2.57.83-4.84.84-2.26 2.39-3.94 1.56-1.68 3.8-2.66t5.06-.98q2.37 0 4.38.76t3.46 2.22q1.44 1.46 2.26 3.57.83 2.12.83 4.84 0 1.38-.3 1.85-.29.48-1.13.48m11.3-11.81.37 2.84q1.17-2.25 2.79-3.54 1.62-1.28 3.82-1.28 1.74 0 2.79.76l-.39 4.53q-.12.44-.35.62-.24.19-.63.19-.37 0-1.09-.12-.72-.13-1.41-.13-1 0-1.79.3-.78.29-1.4.84-.63.55-1.11 1.34-.47.78-.89 1.79v15.48h-6.05v-25.14h3.55q.93 0 1.3.33t.49 1.19m24.06-1.91q2.79 0 5.08.91 2.29.9 3.92 2.57t2.51 4.07.88 5.36q0 2.99-.88 5.39t-2.51 4.09-3.92 2.6-5.08.91q-2.82 0-5.12-.91-2.31-.91-3.94-2.6-1.62-1.69-2.52-4.09-.89-2.4-.89-5.39 0-2.96.89-5.36.9-2.4 2.52-4.07 1.63-1.67 3.94-2.57 2.3-.91 5.12-.91m0 21.24q3.13 0 4.64-2.1 1.51-2.11 1.51-6.18t-1.51-6.2-4.64-2.13q-3.19 0-4.72 2.15-1.53 2.14-1.53 6.18t1.53 6.16 4.72 2.12m54.22-4.06q.54 0 .95.41l2.6 2.82q-2.16 2.67-5.31 4.09-3.14 1.42-7.55 1.42-3.95 0-7.1-1.35-3.14-1.34-5.37-3.74t-3.42-5.74q-1.19-3.33-1.19-7.27 0-4 1.27-7.32 1.28-3.32 3.59-5.72 2.32-2.4 5.53-3.73 3.21-1.34 7.1-1.34 3.87 0 6.87 1.28 3.01 1.27 5.11 3.33l-2.2 3.06q-.2.29-.5.51-.31.22-.85.22-.37 0-.76-.2-.39-.21-.86-.52-.46-.3-1.07-.67-.62-.37-1.43-.68-.8-.3-1.87-.51t-2.46-.21q-2.38 0-4.35.85-1.97.84-3.39 2.45-1.42 1.6-2.21 3.92-.78 2.31-.78 5.28 0 2.99.84 5.31.85 2.33 2.29 3.92 1.45 1.6 3.41 2.44 1.96.85 4.21.85 1.35 0 2.44-.15t2.01-.47q.92-.31 1.74-.82.82-.5 1.63-1.23.24-.22.51-.36.27-.13.57-.13m18.25-17.18q2.79 0 5.08.91 2.29.9 3.92 2.57t2.51 4.07q.89 2.4.89 5.36 0 2.99-.89 5.39-.88 2.4-2.51 4.09t-3.92 2.6-5.08.91q-2.82 0-5.12-.91t-3.93-2.6-2.53-4.09q-.89-2.4-.89-5.39 0-2.96.89-5.36.9-2.4 2.53-4.07t3.93-2.57q2.3-.91 5.12-.91m0 21.24q3.13 0 4.64-2.1 1.51-2.11 1.51-6.18t-1.51-6.2-4.64-2.13q-3.19 0-4.72 2.15-1.53 2.14-1.53 6.18t1.53 6.16 4.72 2.12m23.08 4.29h-6.05v-25.14h3.7q1.17 0 1.54 1.11l.39 1.86q.66-.74 1.39-1.35.72-.61 1.54-1.05t1.76-.7q.95-.26 2.07-.26 2.38 0 3.91 1.29 1.53 1.28 2.29 3.42.59-1.25 1.47-2.15.88-.89 1.94-1.46 1.05-.56 2.24-.83t2.39-.27q2.08 0 3.7.64 1.61.63 2.72 1.86 1.1 1.23 1.67 2.99.58 1.76.58 4.04v16h-6.05v-16q0-2.4-1.05-3.61-1.06-1.21-3.09-1.21-.93 0-1.73.31-.79.32-1.4.92-.6.6-.94 1.51t-.34 2.08v16h-6.08v-16q0-2.52-1.01-3.67-1.02-1.15-2.98-1.15-1.32 0-2.46.64-1.14.65-2.12 1.78zm41.04-17.79v11.27q1.02 1.25 2.24 1.77 1.21.51 2.63.51 1.37 0 2.48-.51 1.1-.52 1.87-1.57t1.19-2.66q.41-1.6.41-3.78 0-2.21-.35-3.74-.36-1.53-1.02-2.49-.66-.95-1.6-1.39-.95-.44-2.15-.44-1.88 0-3.21.79-1.32.8-2.49 2.24m-.81-6.24.49 2.32q1.54-1.74 3.5-2.81 1.96-1.08 4.61-1.08 2.05 0 3.76.86 1.7.85 2.94 2.48 1.23 1.63 1.91 4.02.67 2.39.67 5.48 0 2.81-.76 5.21-.76 2.41-2.17 4.17-1.4 1.76-3.4 2.76-2 .99-4.47.99-2.11 0-3.6-.65-1.5-.65-2.67-1.8v10.29h-6.06v-33.35h3.7q1.18 0 1.55 1.11m27.93.41.36 2.84q1.18-2.25 2.8-3.54 1.61-1.28 3.82-1.28 1.74 0 2.79.76l-.39 4.53q-.12.44-.36.62-.23.19-.62.19-.37 0-1.09-.12-.72-.13-1.41-.13-1 0-1.79.3-.78.29-1.41.84-.62.55-1.1 1.34-.48.78-.89 1.79v15.48h-6.05v-25.14h3.55q.93 0 1.3.33.36.33.49 1.19m24.06-1.91q2.79 0 5.08.91 2.29.9 3.92 2.57t2.51 4.07.88 5.36q0 2.99-.88 5.39t-2.51 4.09-3.92 2.6-5.08.91q-2.82 0-5.12-.91-2.31-.91-3.94-2.6t-2.52-4.09-.89-5.39q0-2.96.89-5.36t2.52-4.07 3.94-2.57q2.3-.91 5.12-.91m0 21.24q3.13 0 4.64-2.1 1.51-2.11 1.51-6.18t-1.51-6.2-4.64-2.13q-3.19 0-4.72 2.15-1.53 2.14-1.53 6.18t1.53 6.16 4.72 2.12m23.07 4.29h-6.05v-25.14h3.7q1.18 0 1.55 1.11l.39 1.86q.66-.74 1.38-1.35.73-.61 1.55-1.05t1.76-.7 2.07-.26q2.38 0 3.91 1.29 1.53 1.28 2.29 3.42.59-1.25 1.47-2.15.88-.89 1.93-1.46 1.06-.56 2.25-.83 1.18-.27 2.38-.27 2.09 0 3.7.64 1.62.63 2.72 1.86 1.11 1.23 1.68 2.99.58 1.76.58 4.04v16h-6.05v-16q0-2.4-1.06-3.61-1.05-1.21-3.08-1.21-.94 0-1.73.31-.8.32-1.4.92t-.94 1.51-.34 2.08v16h-6.08v-16q0-2.52-1.02-3.67-1.01-1.15-2.97-1.15-1.33 0-2.47.64-1.14.65-2.12 1.78zm35.19-25.14h6.07v25.14h-6.07zm6.91-7.32q0 .78-.32 1.47-.32.68-.85 1.2-.52.51-1.24.82-.71.31-1.51.31-.79 0-1.49-.31-.69-.31-1.21-.82-.51-.52-.82-1.2-.31-.69-.31-1.47 0-.81.31-1.52t.82-1.23q.52-.51 1.21-.82.7-.3 1.49-.3.8 0 1.51.3.72.31 1.24.82.53.52.85 1.23t.32 1.52m22.05 10.04-1.38 2.18q-.24.4-.51.55-.27.16-.69.16-.44 0-.94-.24-.5-.25-1.16-.55-.67-.31-1.51-.55-.85-.25-2-.25-1.79 0-2.8.76-1.02.76-1.02 1.99 0 .8.53 1.35.52.56 1.39.97.87.42 1.98.75 1.1.33 2.24.72t2.24.9q1.1.5 1.97 1.27t1.4 1.85.53 2.6q0 1.81-.65 3.34t-1.93 2.65q-1.27 1.11-3.15 1.74-1.87.62-4.32.62-1.3 0-2.54-.23-1.23-.23-2.37-.65t-2.11-.98-1.7-1.22l1.39-2.31q.27-.41.64-.63.37-.23.93-.23.57 0 1.07.32t1.16.69 1.56.69q.89.31 2.26.31 1.08 0 1.85-.25.78-.26 1.28-.68.5-.41.73-.97.24-.55.24-1.13 0-.89-.53-1.45t-1.4-.98-1.98-.75q-1.12-.33-2.28-.72t-2.28-.92q-1.11-.53-1.98-1.33-.87-.81-1.4-1.99-.53-1.17-.53-2.84 0-1.54.62-2.94.61-1.4 1.8-2.44 1.18-1.04 2.96-1.66 1.78-.63 4.1-.63 2.6 0 4.73.86t3.56 2.25m9.6 6.96h11.42q0-1.18-.33-2.22t-1-1.82q-.66-.79-1.67-1.24-1.02-.45-2.37-.45-2.62 0-4.13 1.49-1.5 1.5-1.92 4.24m15.43 3.65h-15.55q.14 1.94.68 3.35.54 1.4 1.42 2.32.89.92 2.1 1.37 1.21.46 2.68.46t2.54-.34q1.06-.35 1.86-.76.8-.42 1.4-.76.6-.35 1.16-.35.76 0 1.13.57l1.74 2.2q-1.01 1.18-2.26 1.97-1.25.8-2.61 1.28t-2.77.67q-1.4.2-2.73.2-2.62 0-4.87-.87-2.26-.87-3.92-2.57-1.67-1.71-2.62-4.22-.96-2.51-.96-5.82 0-2.57.83-4.84.84-2.26 2.39-3.94 1.56-1.68 3.8-2.66t5.06-.98q2.38 0 4.38.76 2.01.76 3.46 2.22 1.44 1.46 2.26 3.57.83 2.12.83 4.84 0 1.38-.3 1.85-.29.48-1.13.48m5.08 8.48q0-.76.28-1.45.28-.68.77-1.17t1.18-.79q.68-.29 1.47-.29.78 0 1.45.29.68.3 1.18.79t.8 1.17q.29.69.29 1.45 0 .78-.29 1.46-.3.67-.8 1.16t-1.18.77q-.67.28-1.45.28-.79 0-1.47-.28-.69-.28-1.18-.77t-.77-1.16q-.28-.68-.28-1.46"/></svg>