<svg xmlns="http://www.w3.org/2000/svg" width="700" height="400" viewBox="0 0 700 400"><rect width="100%" height="100%" fill="#919936"/><path fill="#ffffff" d="M166.12 185.2h3.59l-7.64 24.58h-4.13l-5.37-16.8q-.22-.61-.41-1.49-.1.42-.2.8-.1.37-.22.69l-5.42 16.8h-4.15l-7.62-24.58h3.83q.59 0 .99.28t.54.75l4.18 14.71q.13.54.26 1.18t.27 1.34q.13-.72.29-1.35t.35-1.17l4.83-14.71q.14-.39.53-.71.4-.32.98-.32h1.35q.59 0 .96.29.38.29.57.74l4.81 14.71q.35 1.05.64 2.43.22-1.34.5-2.43l4.18-14.71q.1-.42.52-.73.41-.3.99-.3m9.27 13.85h7.92q0-.81-.23-1.54-.23-.72-.69-1.26-.46-.55-1.17-.86-.7-.32-1.64-.32-1.81 0-2.86 1.04t-1.33 2.94m10.71 2.54h-10.8q.1 1.34.48 2.32.37.97.98 1.61t1.46.95q.84.32 1.86.32t1.76-.24 1.29-.53.97-.52q.41-.24.81-.24.52 0 .78.39l1.2 1.53q-.69.81-1.56 1.37-.87.55-1.81.88t-1.92.47-1.9.14q-1.82 0-3.38-.61-1.56-.6-2.72-1.78-1.16-1.19-1.82-2.93t-.66-4.04q0-1.78.58-3.35.57-1.58 1.65-2.74t2.64-1.84q1.55-.68 3.51-.68 1.65 0 3.04.52 1.4.53 2.4 1.54t1.57 2.48.57 3.36q0 .95-.2 1.28-.21.34-.78.34m8.33-4.15v7.82q.71.86 1.55 1.22t1.78.36q.97 0 1.74-.35t1.32-1.09q.54-.74.83-1.88.29-1.15.29-2.75 0-2.87-.95-4.16-.95-1.28-2.74-1.28-1.21 0-2.11.55t-1.71 1.56m0-12.92v9.96q1.05-1.11 2.33-1.76 1.29-.65 2.94-.65 1.51 0 2.72.59 1.22.6 2.08 1.71t1.32 2.69q.45 1.58.45 3.56 0 2.12-.52 3.86-.53 1.73-1.51 2.96-.97 1.24-2.35 1.91-1.38.69-3.06.69-.82 0-1.48-.17-.66-.16-1.22-.45-.57-.29-1.03-.7-.47-.42-.9-.93l-.18 1.17q-.1.45-.35.63-.25.19-.67.19h-2.77v-25.26zM227 205.28v-2.95q-1.82.09-3.06.32t-1.99.58q-.75.36-1.07.84-.33.47-.33 1.03 0 1.11.66 1.59.65.47 1.71.47 1.29 0 2.23-.47.95-.46 1.85-1.41m-8.88-9.17-.74-1.34q3-2.76 7.24-2.76 1.53 0 2.73.51 1.21.5 2.04 1.39.84.89 1.27 2.13t.43 2.72v11.02h-1.9q-.59 0-.92-.18-.32-.18-.51-.72l-.37-1.26q-.66.6-1.29 1.05t-1.31.75q-.68.31-1.46.47-.77.16-1.7.16-1.11 0-2.04-.3-.94-.29-1.62-.89-.68-.59-1.05-1.48-.38-.88-.38-2.05 0-.67.22-1.32.22-.66.73-1.25.5-.6 1.3-1.12.8-.53 1.96-.92t2.71-.64 3.54-.3v-1.02q0-1.75-.75-2.59t-2.16-.84q-1.02 0-1.69.24t-1.18.53q-.51.3-.93.54t-.93.24q-.44 0-.74-.23-.31-.23-.5-.54m20.56-3.01.29 1.38q.52-.53 1.11-.98t1.24-.76q.65-.32 1.4-.5.75-.17 1.63-.17 1.43 0 2.54.48 1.1.48 1.84 1.36t1.12 2.09q.39 1.22.39 2.68v11.1h-4.2v-11.1q0-1.6-.73-2.47-.73-.88-2.23-.88-1.09 0-2.04.49-.95.5-1.8 1.35v12.61h-4.2v-17.44h2.57q.81 0 1.07.76m26.48 11.51v-7.82q-.71-.87-1.55-1.22-.84-.36-1.81-.36-.96 0-1.72.36-.77.35-1.31 1.08-.54.72-.83 1.83-.29 1.12-.29 2.63 0 1.53.24 2.59.25 1.06.71 1.74.46.67 1.12.97.67.29 1.48.29 1.31 0 2.23-.54.92-.55 1.73-1.55m0-20.09h4.2v25.26h-2.57q-.83 0-1.05-.77l-.36-1.68q-1.05 1.21-2.42 1.96t-3.19.75q-1.42 0-2.61-.6t-2.05-1.73-1.33-2.79q-.47-1.67-.47-3.81 0-1.94.53-3.6.53-1.67 1.51-2.89.99-1.23 2.37-1.92 1.37-.69 3.09-.69 1.46 0 2.5.46t1.85 1.24zm31.5 2.99-1.14 2.16q-.2.36-.43.52t-.57.16q-.36 0-.77-.26-.42-.27-1-.59-.57-.32-1.35-.59-.77-.26-1.83-.26-.95 0-1.66.23-.72.23-1.2.64-.48.4-.72.97t-.24 1.25q0 .87.48 1.45.49.58 1.29.98.8.41 1.82.73 1.02.33 2.09.69 1.07.37 2.09.85 1.02.49 1.82 1.23t1.28 1.81q.49 1.07.49 2.6 0 1.66-.57 3.12-.57 1.45-1.67 2.53t-2.68 1.7-3.62.62q-1.17 0-2.31-.23t-2.19-.65q-1.04-.43-1.96-1.02-.92-.6-1.63-1.33l1.34-2.19q.17-.24.44-.4.28-.16.58-.16.43 0 .92.35.49.34 1.17.77.68.42 1.59.77t2.19.35q1.95 0 3.02-.92 1.07-.93 1.07-2.67 0-.96-.48-1.58-.48-.61-1.28-1.02-.8-.42-1.82-.71t-2.08-.63q-1.05-.34-2.07-.82-1.02-.47-1.82-1.24-.8-.76-1.28-1.91-.49-1.15-.49-2.83 0-1.34.54-2.62.53-1.27 1.55-2.26 1.02-.98 2.52-1.58 1.5-.59 3.43-.59 2.18 0 4.02.68 1.83.68 3.12 1.9m12.97 17.77v-2.95q-1.81.09-3.06.32-1.24.23-1.98.58-.75.36-1.08.84-.32.47-.32 1.03 0 1.11.66 1.59.65.47 1.7.47 1.3 0 2.24-.47.94-.46 1.84-1.41m-8.87-9.17-.75-1.34q3.01-2.76 7.24-2.76 1.53 0 2.74.51 1.21.5 2.04 1.39t1.27 2.13q.43 1.24.43 2.72v11.02h-1.9q-.6 0-.92-.18t-.51-.72l-.37-1.26q-.67.6-1.3 1.05t-1.31.75q-.68.31-1.45.47t-1.71.16q-1.1 0-2.04-.3-.93-.29-1.61-.89-.68-.59-1.06-1.48-.37-.88-.37-2.05 0-.67.22-1.32.22-.66.72-1.25.5-.6 1.3-1.12.8-.53 1.97-.92 1.16-.39 2.71-.64t3.53-.3v-1.02q0-1.75-.74-2.59-.75-.84-2.16-.84-1.02 0-1.69.24-.68.24-1.19.53l-.92.54q-.42.24-.93.24-.44 0-.75-.23-.3-.23-.49-.54m26.13 9.17v-2.95q-1.82.09-3.06.32t-1.99.58q-.75.36-1.07.84-.32.47-.32 1.03 0 1.11.65 1.59.66.47 1.71.47 1.29 0 2.24-.47.94-.46 1.84-1.41m-8.87-9.17-.75-1.34q3.01-2.76 7.24-2.76 1.53 0 2.74.51 1.2.5 2.04 1.39.83.89 1.26 2.13.44 1.24.44 2.72v11.02h-1.91q-.59 0-.92-.18-.32-.18-.51-.72l-.37-1.26q-.66.6-1.29 1.05t-1.31.75q-.68.31-1.45.47-.78.16-1.71.16-1.11 0-2.04-.3-.94-.29-1.62-.89-.68-.59-1.05-1.48-.38-.88-.38-2.05 0-.67.23-1.32.22-.66.72-1.25.5-.6 1.3-1.12.8-.53 1.96-.92 1.17-.39 2.71-.64 1.55-.25 3.54-.3v-1.02q0-1.75-.75-2.59t-2.16-.84q-1.02 0-1.69.24t-1.18.53q-.51.3-.93.54-.41.24-.92.24-.45 0-.75-.23-.31-.23-.49-.54m31.8-8.6-1.14 2.16q-.2.36-.43.52t-.57.16q-.36 0-.77-.26-.42-.27-1-.59t-1.35-.59q-.77-.26-1.83-.26-.95 0-1.66.23-.72.23-1.2.64-.49.4-.72.97-.24.57-.24 1.25 0 .87.48 1.45.49.58 1.29.98.8.41 1.82.73 1.02.33 2.09.69 1.07.37 2.09.85 1.02.49 1.82 1.23t1.28 1.81.48 2.6q0 1.66-.56 3.12-.57 1.45-1.67 2.53t-2.68 1.7-3.62.62q-1.17 0-2.31-.23t-2.19-.65q-1.04-.43-1.96-1.02-.92-.6-1.63-1.33l1.34-2.19q.17-.24.44-.4.28-.16.58-.16.43 0 .92.35.49.34 1.17.77.68.42 1.59.77t2.19.35q1.95 0 3.02-.92 1.07-.93 1.07-2.67 0-.96-.48-1.58-.49-.61-1.28-1.02-.8-.42-1.82-.71t-2.08-.63q-1.05-.34-2.07-.82-1.02-.47-1.82-1.24-.8-.76-1.28-1.91-.49-1.15-.49-2.83 0-1.34.54-2.62.53-1.27 1.55-2.26 1.02-.98 2.52-1.58 1.49-.59 3.43-.59 2.18 0 4.01.68 1.84.68 3.13 1.9m34.51 9.98q0 2.7-.9 4.96t-2.53 3.9q-1.63 1.63-3.93 2.53-2.29.9-5.1.9h-9.37V185.2h9.37q2.81 0 5.1.91 2.3.91 3.93 2.53t2.53 3.88q.9 2.27.9 4.97m-4.69 0q0-2.02-.53-3.63-.54-1.61-1.55-2.72t-2.45-1.71q-1.44-.59-3.24-.59h-4.78v17.3h4.78q1.8 0 3.24-.59 1.44-.6 2.45-1.71 1.01-1.12 1.55-2.72.53-1.61.53-3.63m11.37 1.56h7.93q0-.81-.23-1.54-.23-.72-.69-1.26-.46-.55-1.17-.86-.7-.32-1.64-.32-1.82 0-2.86 1.04-1.05 1.04-1.34 2.94m10.71 2.54h-10.79q.1 1.34.47 2.32.38.97.99 1.61t1.45.95q.85.32 1.87.32t1.76-.24q.73-.24 1.29-.53.55-.29.97-.52.41-.24.8-.24.53 0 .79.39l1.2 1.53q-.69.81-1.56 1.37-.87.55-1.81.88-.95.33-1.92.47-.98.14-1.9.14-1.82 0-3.38-.61-1.57-.6-2.72-1.78-1.16-1.19-1.82-2.93t-.66-4.04q0-1.78.57-3.35.58-1.58 1.66-2.74t2.64-1.84q1.55-.68 3.51-.68 1.65 0 3.04.52 1.39.53 2.4 1.54 1 1.01 1.57 2.48t.57 3.36q0 .95-.2 1.28-.21.34-.79.34m16.54-9.25h3.32l-6.92 17.44h-3.81l-6.92-17.44h3.47q.48 0 .79.22.32.22.42.56l3.36 9.32q.28.81.48 1.59.2.79.36 1.57.17-.78.37-1.57.21-.78.49-1.59l3.44-9.32q.12-.34.42-.56.31-.22.73-.22m8.86 6.71h7.92q0-.81-.23-1.54-.23-.72-.68-1.26-.46-.55-1.17-.86-.7-.32-1.64-.32-1.82 0-2.86 1.04-1.05 1.04-1.34 2.94m10.71 2.54h-10.79q.1 1.34.47 2.32.38.97.99 1.61t1.45.95q.84.32 1.86.32t1.76-.24 1.3-.53q.55-.29.96-.52.42-.24.81-.24.53 0 .78.39l1.21 1.53q-.7.81-1.56 1.37-.87.55-1.81.88-.95.33-1.92.47-.98.14-1.9.14-1.82 0-3.38-.61-1.57-.6-2.72-1.78-1.16-1.19-1.82-2.93-.67-1.74-.67-4.04 0-1.78.58-3.35.58-1.58 1.66-2.74t2.64-1.84q1.55-.68 3.51-.68 1.64 0 3.04.52 1.39.53 2.4 1.54 1 1.01 1.57 2.48t.57 3.36q0 .95-.21 1.28-.2.34-.78.34m4.18-17.07h4.2v25.26h-4.2zm16.12 7.55q1.94 0 3.53.62 1.59.63 2.72 1.79t1.74 2.82q.61 1.67.61 3.72 0 2.08-.61 3.74-.61 1.67-1.74 2.84-1.13 1.18-2.72 1.81t-3.53.63q-1.96 0-3.55-.63-1.6-.63-2.73-1.81-1.13-1.17-1.75-2.84-.62-1.66-.62-3.74 0-2.05.62-3.72.62-1.66 1.75-2.82t2.73-1.79q1.59-.62 3.55-.62m0 14.73q2.18 0 3.22-1.46 1.05-1.46 1.05-4.28t-1.05-4.3q-1.04-1.48-3.22-1.48-2.21 0-3.27 1.49-1.07 1.48-1.07 4.29 0 2.8 1.07 4.27 1.06 1.47 3.27 1.47m16.01-9.36v7.82q.72.86 1.56 1.22t1.83.36q.95 0 1.71-.36.77-.36 1.3-1.09.54-.73.83-1.84t.29-2.63q0-1.53-.25-2.59t-.7-1.73q-.46-.66-1.12-.96-.65-.31-1.49-.31-1.3 0-2.22.55t-1.74 1.56m-.56-4.34.34 1.62q1.07-1.21 2.43-1.96t3.2-.75q1.43 0 2.61.6 1.18.59 2.04 1.73.86 1.13 1.33 2.78.46 1.66.46 3.8 0 1.96-.52 3.62-.53 1.67-1.51 2.89-.98 1.23-2.36 1.92-1.39.69-3.1.69-1.47 0-2.5-.46-1.04-.45-1.86-1.25v7.15h-4.2v-23.14h2.57q.82 0 1.07.76m19.88 16.68h-4.2v-17.44h2.56q.82 0 1.07.76l.28 1.29q.46-.51.96-.93.5-.43 1.07-.73.57-.31 1.22-.49.66-.17 1.44-.17 1.65 0 2.71.89t1.59 2.37q.41-.87 1.02-1.49t1.34-1.01 1.56-.58q.82-.18 1.66-.18 1.44 0 2.56.44t1.89 1.29q.76.85 1.16 2.07.4 1.23.4 2.81v11.1h-4.2v-11.1q0-1.67-.73-2.51t-2.14-.84q-.64 0-1.2.22-.55.22-.97.64-.41.41-.65 1.04t-.24 1.45v11.1h-4.21v-11.1q0-1.75-.71-2.55t-2.07-.8q-.91 0-1.7.45t-1.47 1.23zm27.59-10.73h7.92q0-.81-.23-1.54-.23-.72-.69-1.26-.46-.55-1.16-.86-.71-.32-1.64-.32-1.82 0-2.87 1.04-1.04 1.04-1.33 2.94m10.71 2.54h-10.8q.1 1.34.48 2.32.37.97.98 1.61.62.64 1.46.95.84.32 1.86.32t1.76-.24 1.29-.53.97-.52q.42-.24.81-.24.52 0 .78.39l1.21 1.53q-.7.81-1.57 1.37-.87.55-1.81.88t-1.92.47-1.9.14q-1.81 0-3.38-.61-1.56-.6-2.72-1.78-1.15-1.19-1.82-2.93-.66-1.74-.66-4.04 0-1.78.58-3.35.58-1.58 1.65-2.74 1.08-1.16 2.64-1.84t3.51-.68q1.65 0 3.04.52 1.4.53 2.4 1.54t1.57 2.48.57 3.36q0 .95-.2 1.28-.21.34-.78.34m7.77-8.49.28 1.38q.53-.53 1.12-.98.58-.45 1.24-.76.65-.32 1.4-.5.75-.17 1.63-.17 1.43 0 2.54.48 1.1.48 1.84 1.36t1.12 2.09q.39 1.22.39 2.68v11.1h-4.2v-11.1q0-1.6-.73-2.47-.74-.88-2.23-.88-1.09 0-2.04.49-.95.5-1.8 1.35v12.61h-4.2v-17.44h2.56q.82 0 1.08.76m21.35 16.95q-2.28 0-3.5-1.28-1.21-1.29-1.21-3.55v-9.74h-1.79q-.34 0-.57-.22-.24-.22-.24-.66v-1.67l2.8-.46.89-4.76q.08-.34.32-.52.24-.19.61-.19h2.18v5.49h4.66v2.99h-4.66v9.45q0 .82.4 1.28t1.09.46q.39 0 .66-.09.26-.1.46-.2.19-.1.35-.2.15-.09.3-.09.19 0 .31.09.12.1.25.28l1.26 2.04q-.92.77-2.11 1.16t-2.46.39"/></svg>